{"glyphs":{"0":{"ha":1117,"x_min":42,"x_max":1075,"o":"m 1017 792 l 1074 672 l 1075 663 l 1075 469 l 1074 463 l 999 250 l 994 243 l 863 88 l 856 83 l 719 1 l 708 -1 l 422 -1 l 413 1 l 263 82 l 254 88 l 125 242 l 122 249 l 42 461 l 42 668 l 126 876 l 256 1024 l 263 1028 l 410 1113 l 422 1115 l 707 1117 l 718 1113 l 857 1029 l 861 1024 l 968 890 l 1001 825 l 1017 792 m 989 769 l 974 804 l 922 893 l 833 1003 l 699 1082 l 697 1082 l 431 1082 l 429 1082 l 282 1001 l 153 856 l 75 661 l 75 472 l 154 264 l 282 114 l 425 36 l 704 36 l 833 111 l 964 264 l 1039 475 l 1039 663 l 989 769 z "},"1":{"ha":672,"x_min":97,"x_max":506,"o":"m 126 521 l 97 539 l 471 1108 l 471 1110 l 506 1110 l 506 0 l 471 0 l 471 1046 l 126 521 z "},"2":{"ha":813,"x_min":69,"x_max":743,"o":"m 424 435 l 431 435 l 507 435 l 572 485 l 638 574 l 639 575 l 674 690 l 674 813 l 638 936 l 638 938 l 572 1032 l 506 1081 l 368 1081 l 297 1032 l 236 943 l 194 808 l 194 706 l 158 706 l 158 811 l 203 951 l 206 956 l 272 1053 l 278 1058 l 354 1110 l 365 1114 l 511 1114 l 524 1110 l 594 1058 l 599 1053 l 665 956 l 668 950 l 707 818 l 708 813 l 708 692 l 707 686 l 668 561 l 665 554 l 599 463 l 594 458 l 524 406 l 511 401 l 424 401 l 424 435 m 110 35 l 511 689 l 482 707 l 69 35 l 110 35 m 110 35 l 743 35 l 743 0 l 69 0 l 69 35 l 99 17 l 110 35 z "},"3":{"ha":735,"x_min":69,"x_max":665,"o":"m 322 632 l 322 668 l 442 668 l 538 733 l 569 818 l 569 926 l 524 1011 l 447 1079 l 296 1079 l 222 1024 l 178 946 l 178 871 l 144 871 l 144 946 l 189 1033 l 192 1039 l 279 1108 l 292 1113 l 451 1113 l 464 1108 l 551 1032 l 554 1025 l 604 931 l 604 806 l 568 713 l 478 653 l 556 610 l 560 606 l 622 525 l 625 518 l 664 401 l 665 396 l 665 289 l 664 283 l 625 171 l 622 165 l 556 68 l 551 63 l 461 4 l 449 0 l 282 0 l 271 4 l 185 56 l 179 61 l 111 151 l 108 156 l 69 257 l 69 403 l 106 403 l 106 260 l 142 164 l 204 82 l 285 33 l 443 33 l 529 89 l 594 183 l 594 185 l 631 289 l 631 397 l 596 504 l 594 506 l 533 583 l 444 632 l 322 632 z "},"4":{"ha":771,"x_min":69,"x_max":729,"o":"m 174 0 l 144 18 l 375 403 l 69 403 l 69 438 l 475 1113 l 504 1094 l 111 438 l 396 438 l 558 707 l 588 689 l 436 438 l 729 438 l 729 403 l 415 403 l 174 0 z "},"5":{"ha":694,"x_min":69,"x_max":625,"o":"m 69 403 l 106 403 l 106 275 l 147 172 l 208 83 l 279 35 l 417 35 l 483 83 l 549 178 l 549 179 l 585 303 l 585 425 l 550 540 l 483 631 l 418 681 l 247 681 l 213 681 l 213 1111 l 226 1111 l 247 1111 l 625 1111 l 625 1076 l 247 1076 l 247 714 l 429 714 l 510 653 l 576 561 l 579 554 l 619 424 l 619 303 l 618 297 l 576 160 l 506 57 l 435 6 l 422 1 l 276 1 l 265 6 l 189 57 l 183 63 l 114 164 l 69 272 l 69 403 z "},"6":{"ha":779,"x_min":69,"x_max":719,"o":"m 685 786 l 719 786 l 719 894 l 718 900 l 664 1014 l 553 1111 l 389 1111 l 282 1025 l 279 1019 l 228 897 l 228 699 l 183 656 l 179 651 l 113 560 l 110 553 l 71 428 l 69 422 l 69 301 l 71 296 l 110 164 l 113 158 l 179 61 l 183 56 l 254 4 l 267 0 l 413 0 l 424 4 l 500 56 l 506 61 l 572 158 l 575 163 l 619 303 l 619 419 l 575 554 l 572 560 l 506 651 l 501 656 l 425 708 l 413 713 l 290 713 l 499 917 l 476 940 l 264 733 l 264 892 l 313 1004 l 401 1078 l 539 1078 l 629 1001 l 631 1000 l 685 896 l 685 786 m 206 82 l 140 176 l 140 178 l 104 301 l 104 424 l 139 540 l 206 629 l 271 679 l 408 679 l 478 631 l 542 544 l 583 418 l 583 306 l 542 171 l 481 82 l 410 33 l 272 33 l 206 82 z "},"7":{"ha":786,"x_min":56,"x_max":744,"o":"m 94 0 l 63 18 l 456 667 l 239 667 l 239 701 l 476 701 l 703 1076 l 56 1075 l 56 1110 l 744 1111 l 744 1089 l 744 1076 l 518 701 l 719 701 l 719 667 l 497 667 l 94 0 z "},"8":{"ha":749,"x_min":76,"x_max":672,"o":"m 471 1108 l 458 1113 l 299 1113 l 286 1108 l 199 1039 l 196 1033 l 150 940 l 150 919 l 150 871 l 150 828 l 186 717 l 275 658 l 189 610 l 185 606 l 122 525 l 119 518 l 76 406 l 76 369 l 76 293 l 115 174 l 118 169 l 186 61 l 192 56 l 278 4 l 289 0 l 465 0 l 478 4 l 558 63 l 563 68 l 629 165 l 632 171 l 671 283 l 672 289 l 672 396 l 671 401 l 632 518 l 629 525 l 567 606 l 563 610 l 485 653 l 575 713 l 611 824 l 611 931 l 561 1025 l 558 1032 l 471 1108 m 113 401 l 149 504 l 150 506 l 211 583 l 300 633 l 311 633 l 440 633 l 451 633 l 540 583 l 601 506 l 603 504 l 638 397 l 638 289 l 601 185 l 601 183 l 536 89 l 460 33 l 292 33 l 211 82 l 149 182 l 113 296 l 113 369 l 113 401 m 449 667 l 440 667 l 319 667 l 217 738 l 185 840 l 185 907 l 185 919 l 185 933 l 229 1024 l 303 1079 l 454 1079 l 531 1011 l 576 926 l 576 836 l 544 733 l 449 667 z "},"9":{"ha":715,"x_min":60,"x_max":658,"o":"m 501 1121 l 599 1047 l 658 922 l 658 771 l 603 649 l 600 643 l 557 608 l 554 218 l 556 218 l 554 215 q 554 214 554 215 l 554 214 l 500 96 l 497 90 l 390 4 l 226 4 l 115 101 l 61 215 l 60 221 l 60 338 l 94 338 l 94 219 l 149 115 l 150 114 l 240 38 l 378 38 l 467 111 l 519 224 q 522 581 519 224 l 493 557 l 329 557 l 218 654 l 164 768 l 163 774 l 163 915 l 164 921 l 228 1042 l 231 1047 l 332 1121 l 344 1125 l 490 1125 l 501 1121 m 524 808 l 558 808 l 557 654 l 569 664 l 622 776 l 622 919 l 565 1032 l 488 1092 l 350 1092 l 258 1028 l 197 915 l 197 772 l 251 668 l 253 667 l 343 590 l 481 590 l 522 625 l 524 808 z "},"\u0000":{"ha":593,"x_min":0,"x_max":0,"o":""},"‘":{"ha":478,"x_min":42,"x_max":325,"o":"m 232 1078 l 157 1036 l 101 968 l 76 881 l 75 789 l 115 713 l 86 697 l 44 775 l 42 785 l 42 885 l 43 892 l 71 983 l 74 990 l 132 1061 l 139 1065 l 218 1110 l 229 1113 l 325 1113 l 325 1078 l 232 1078 z "},"’":{"ha":478,"x_min":42,"x_max":325,"o":"m 135 732 l 210 774 l 265 842 l 290 929 l 292 1021 l 251 1097 l 281 1113 l 322 1035 l 325 1025 l 325 925 l 324 918 l 296 826 l 293 819 l 235 749 l 228 744 l 149 700 l 138 697 l 42 697 l 42 732 l 135 732 z "},"\u001b":{"ha":372,"x_min":38,"x_max":201,"o":"m 71 811 l 38 829 l 167 1113 l 201 1094 l 71 811 z "},"\u001c":{"ha":1058,"x_min":0,"x_max":0,"o":""},"\u001d":{"ha":833,"x_min":75,"x_max":763,"o":"m 642 465 l 689 397 q 717 294 706 349 l 710 199 q 686 151 703 181 q 667 115 669 122 l 663 110 l 585 44 l 578 40 l 486 10 l 479 8 l 397 8 q 325 46 389 13 l 342 75 l 400 44 l 478 44 l 563 72 l 638 135 l 675 203 l 682 293 l 658 379 l 615 443 l 551 476 l 568 506 l 635 471 l 642 465 m 728 835 l 728 932 l 763 932 l 763 832 l 760 822 l 708 724 l 704 718 l 614 635 l 608 631 l 490 576 l 482 576 l 365 576 l 357 576 l 231 632 l 225 636 l 132 726 l 128 732 l 78 828 l 75 838 l 75 933 l 110 933 l 110 840 l 157 747 l 156 750 l 249 663 l 372 611 l 479 611 l 592 661 l 682 744 l 728 835 z "},"\u001e":{"ha":481,"x_min":-201,"x_max":710,"o":"m 411 -192 l 272 -192 l 147 -136 l 142 -132 l 46 -43 l 42 -37 l -14 67 l -14 76 l -14 181 l 21 181 l 21 78 l 71 -19 l 161 -103 l 283 -157 l 400 -157 l 531 -104 l 625 -14 l 675 81 l 675 179 l 710 179 l 710 79 l 707 69 l 654 -32 l 650 -37 l 550 -132 l 544 -136 l 411 -192 m -167 257 l -167 182 l -201 182 l -201 269 l -157 347 q -114 390 -143 363 q -76 425 -85 417 l -71 429 l 32 471 l 40 472 l 135 472 l 143 471 l 239 429 q 282 390 254 415 q 318 357 310 365 q 344 310 328 342 q 364 271 360 279 l 367 261 l 367 181 l 332 181 l 332 260 l 296 331 l 225 397 l 132 438 l 44 438 l -57 396 l -129 328 l -167 257 z "},"\u001f":{"ha":786,"x_min":-172,"x_max":896,"o":"m 804 265 l 838 279 l 867 210 l 868 200 l 863 118 l 861 111 l 824 26 q 754 -49 813 13 l 747 -54 l 668 -89 l 660 -90 l 558 -90 q 453 -53 507 -75 l 390 -1 l 385 7 l 357 74 l 390 88 l 417 24 l 472 -22 l 558 -56 l 653 -56 l 731 -24 l 790 40 l 828 126 l 833 199 l 804 265 m 224 0 l 278 46 l 307 115 l 339 101 l 311 32 l 306 25 l 243 -29 l 236 -33 l 150 -67 l 144 -68 l 50 -72 l 40 -71 l -40 -37 l -47 -33 l -119 38 l -124 44 l -164 132 l -165 139 l -172 219 l -171 229 l -144 296 l -112 282 l -137 219 l -131 144 l -93 63 l -22 -7 l 53 -37 l 143 -33 l 224 0 m 586 432 l 681 432 l 758 464 l 806 514 l 781 535 l 694 568 l 597 568 l 519 533 l 475 486 l 500 465 l 586 432 m 854 519 l 863 513 l 868 504 l 896 439 l 864 425 l 836 489 l 832 492 l 782 439 l 775 433 l 696 399 l 688 397 l 586 397 l 579 399 l 488 433 l 482 436 l 456 457 l 426 390 l 419 317 l 449 247 l 417 233 l 386 303 l 385 313 l 392 394 l 393 401 l 426 481 l 419 486 l 413 494 l 385 561 l 418 575 l 444 511 l 449 508 l 499 561 l 506 567 l 586 600 l 594 601 l 703 601 l 793 567 l 800 564 l 825 543 l 856 610 l 861 686 l 832 753 l 865 767 l 894 697 l 896 688 l 890 606 l 889 599 l 854 519 m 264 536 l 231 522 l 201 592 l 200 601 l 206 683 l 207 690 l 244 774 l 249 779 l 314 850 l 321 856 l 400 889 l 408 890 l 517 890 l 608 856 l 615 853 l 678 801 l 683 793 l 711 728 l 678 714 l 651 776 l 596 822 l 506 857 l 413 857 l 336 822 l 276 760 l 240 676 l 235 601 l 264 536 z "}," ":{"ha":408,"x_min":0,"x_max":0,"o":""},"!":{"ha":292,"x_min":139,"x_max":194,"o":"m 150 242 l 150 1111 l 192 1111 l 192 242 l 150 242 m 139 0 l 139 92 l 194 92 l 194 0 l 139 0 z "},"\"":{"ha":1242,"x_min":167,"x_max":1047,"o":"m 719 969 l 617 928 l 544 860 l 522 817 l 532 817 l 647 864 l 731 944 l 744 969 l 719 969 m 243 939 l 324 863 l 431 817 l 486 817 l 517 875 l 521 881 l 599 954 l 604 958 l 708 1001 l 717 1003 l 761 1003 l 774 1025 l 774 1111 l 807 1111 l 807 1024 l 804 1014 l 799 1003 l 813 1003 l 821 1001 l 917 958 l 922 954 l 997 885 l 1001 879 l 1044 799 l 1047 789 l 1047 707 l 1014 707 l 1014 789 l 974 865 l 906 928 l 810 969 l 782 969 l 758 925 l 754 919 l 667 836 l 661 832 l 543 783 l 535 782 l 506 782 l 506 707 l 472 707 l 472 782 l 428 782 l 419 783 l 310 832 l 304 836 l 219 914 l 215 919 l 169 1011 l 167 1021 l 167 1111 l 200 1111 l 200 1021 l 243 939 z "},"#":{"ha":1232,"x_min":40,"x_max":1192,"o":"m 69 4 l 40 28 l 299 415 l 108 415 l 108 454 l 325 454 l 521 750 l 318 750 l 318 789 l 547 789 l 761 1110 l 794 1088 l 594 789 l 942 789 l 1156 1110 l 1189 1088 l 989 789 l 1192 789 l 1192 750 l 964 750 l 765 454 l 982 454 l 982 415 l 740 415 l 463 0 l 433 24 l 694 415 l 344 415 l 69 4 m 917 750 l 568 750 l 371 454 l 719 454 l 917 750 z "},"$":{"ha":1150,"x_min":1,"x_max":1186,"o":"m 468 851 l 536 1011 l 671 1110 l 864 1110 l 939 1054 l 1014 1167 l 1047 1144 l 971 1031 l 993 1014 l 1036 917 l 1007 903 l 969 986 l 950 1000 l 643 542 l 644 539 l 694 363 l 658 214 q 614 141 643 188 q 578 83 585 94 l 431 -1 l 217 -1 l 211 1 l 157 44 l 56 -107 l 26 -83 l 126 68 l 81 104 l 1 257 l 1 349 l 36 349 l 36 265 l 106 128 l 146 96 l 513 647 l 485 681 l 468 851 m 1131 1101 l 1093 1138 l 1118 1163 l 1157 1121 l 1163 1111 l 1186 1035 l 1186 1026 l 1186 932 l 1147 829 l 1086 767 l 1006 726 l 906 726 l 828 750 l 839 781 l 906 761 l 993 761 l 1065 794 l 1115 847 l 1153 942 l 1151 1025 l 1131 1101 m 919 1025 l 854 1074 l 679 1074 l 561 983 l 507 835 l 522 686 l 531 675 l 690 915 l 724 893 l 557 644 l 617 572 l 919 1025 m 597 543 l 539 615 l 175 72 l 224 35 l 258 35 l 597 543 m 617 503 l 303 35 l 424 35 l 553 111 l 625 229 l 658 365 l 617 503 z "},"%":{"ha":1140,"x_min":69,"x_max":1075,"o":"m 197 4 l 168 28 l 888 1111 l 921 1089 l 197 4 m 232 668 l 313 681 l 388 726 l 435 794 l 460 890 l 450 981 l 417 1047 l 364 1089 l 383 1117 l 440 1074 l 447 1065 l 482 993 l 485 986 l 494 890 l 494 882 l 469 785 l 465 778 l 415 704 l 407 699 l 329 651 l 326 650 l 232 633 l 138 653 l 129 657 l 69 701 l 89 731 l 150 685 l 232 668 m 913 25 l 994 42 l 1054 86 l 1075 58 l 1015 13 l 1007 10 l 913 -10 l 818 7 l 814 7 l 736 56 l 729 61 l 678 135 l 675 142 l 649 239 l 649 247 l 660 343 l 663 350 l 697 422 l 704 431 l 761 474 l 781 446 l 728 404 l 694 336 l 685 247 l 710 151 l 757 83 l 831 38 l 913 25 z "},"&":{"ha":1000,"x_min":69,"x_max":978,"o":"m 568 821 l 568 918 l 524 1003 l 449 1074 l 297 1074 l 222 1019 l 182 915 l 182 799 l 339 647 l 490 719 l 568 821 m 507 686 l 367 619 l 688 310 l 688 607 l 724 607 l 724 275 l 978 29 l 954 1 l 717 232 l 650 118 l 524 0 l 511 -3 l 319 -3 l 308 -1 l 181 81 l 69 242 l 69 422 l 179 572 l 304 632 l 147 783 l 147 922 l 189 1029 l 193 1035 l 281 1104 l 293 1107 l 453 1107 l 465 1101 l 551 1024 l 603 922 l 603 807 l 515 693 l 507 686 m 332 604 l 206 544 l 111 415 l 111 254 l 207 110 l 328 33 l 499 33 l 617 142 l 683 264 l 332 604 z "},"'":{"ha":478,"x_min":42,"x_max":325,"o":"m 135 732 l 210 774 l 265 842 l 290 929 l 292 1021 l 251 1097 l 281 1113 l 322 1035 l 325 1025 l 325 925 l 324 918 l 296 826 l 293 819 l 235 749 l 228 744 l 149 700 l 138 697 l 42 697 l 42 732 l 135 732 z "},"(":{"ha":403,"x_min":26,"x_max":1014,"o":"m 26 200 l 115 513 q 117 518 115 517 l 124 529 l 304 799 q 308 804 304 799 l 565 1017 q 571 1019 565 1017 l 832 1110 q 835 1110 835 1113 q 838 1111 835 1111 l 1014 1111 l 1014 1078 l 843 1078 l 588 985 l 336 776 l 156 508 l 151 501 l 65 194 l 65 182 l 110 -110 l 114 -121 l 213 -257 l 197 -268 l 182 -279 l 82 -142 q 81 -140 81 -142 q 79 -137 81 -139 l 74 -122 l 72 -119 l 72 -118 l 28 179 l 26 200 z "},")":{"ha":888,"x_min":-364,"x_max":619,"o":"m -182 1 l -203 0 l -364 0 l -364 38 l -203 38 l -190 39 l 90 128 l 103 133 l 339 346 l 344 354 l 504 633 l 581 950 l 547 1218 l 471 1371 l 506 1389 l 585 1224 l 619 951 l 618 944 l 540 618 l 369 322 l 365 318 l 124 101 l 104 93 l -182 1 z "},"*":{"ha":736,"x_min":199,"x_max":788,"o":"m 767 742 l 786 711 l 724 669 l 715 665 l 633 656 l 626 656 l 538 676 l 531 679 l 449 729 l 442 735 l 394 807 l 392 814 l 371 921 l 375 944 l 326 921 l 269 857 l 238 772 l 235 697 l 265 632 l 233 617 l 201 686 l 200 696 l 201 778 l 203 785 l 238 869 l 242 875 l 304 949 l 310 954 l 382 988 l 386 1018 l 388 1025 l 426 1096 l 433 1103 l 492 1143 l 513 1113 l 456 1075 l 422 1011 l 418 993 l 504 996 l 597 965 l 604 963 l 669 914 l 675 906 l 706 842 l 672 826 l 644 888 l 586 932 l 494 963 l 413 960 l 406 917 l 424 825 l 472 757 l 544 710 l 633 690 l 708 700 l 767 742 z "},"+":{"ha":646,"x_min":3,"x_max":632,"o":"m 3 385 l 3 424 l 307 424 l 307 710 l 346 710 l 346 424 l 632 424 l 632 385 l 346 385 l 346 43 l 307 43 l 307 385 l 3 385 z "},",":{"ha":392,"x_min":42,"x_max":308,"o":"m 278 176 l 308 160 l 71 -282 l 42 -265 l 278 176 z "},"-":{"ha":657,"x_min":14,"x_max":643,"o":"m 14 385 l 14 424 l 643 424 l 643 385 l 14 385 z "},".":{"ha":544,"x_min":168,"x_max":224,"o":"m 168 0 l 168 104 l 224 104 l 224 0 l 168 0 z "},"/":{"ha":678,"x_min":-3,"x_max":694,"o":"m 26 4 l -3 28 l 661 1026 l 694 1004 l 26 4 z "},":":{"ha":421,"x_min":181,"x_max":240,"o":"m 181 597 l 181 701 l 236 701 l 236 597 l 181 597 m 185 94 l 185 199 l 240 199 l 240 94 l 185 94 z "},";":{"ha":654,"x_min":181,"x_max":474,"o":"m 418 597 l 418 701 l 474 701 l 474 597 l 418 597 m 417 176 l 447 160 l 210 -282 l 181 -265 l 417 176 z "},"<":{"ha":833,"x_min":0,"x_max":674,"o":"m 0 35 l 411 706 l 440 688 l 40 35 l 674 35 l 674 0 l 0 0 l 0 35 z "},"=":{"ha":885,"x_min":124,"x_max":753,"o":"m 124 369 l 124 408 l 753 408 l 753 369 l 124 369 m 124 529 l 124 568 l 753 568 l 753 529 l 124 529 z "},">":{"ha":832,"x_min":158,"x_max":832,"o":"m 792 35 l 392 688 l 421 706 l 832 35 l 832 0 l 158 0 l 158 35 l 792 35 z "},"?":{"ha":806,"x_min":167,"x_max":708,"o":"m 418 0 l 418 92 l 474 92 l 474 0 l 418 0 m 632 628 l 674 726 l 674 797 l 674 839 l 643 938 l 578 1026 l 513 1076 l 375 1076 l 306 1028 l 242 942 l 203 815 l 203 738 l 167 738 l 167 817 l 208 951 l 211 957 l 278 1049 l 282 1053 l 358 1106 l 371 1110 l 517 1110 l 529 1106 l 600 1053 l 604 1049 l 671 957 l 674 950 l 707 843 l 708 838 l 708 797 l 708 717 l 663 606 l 574 508 l 460 463 l 460 263 l 426 263 l 426 489 l 557 542 l 632 628 z "},"@":{"ha":1253,"x_min":43,"x_max":1211,"o":"m 835 -96 l 857 -124 l 721 -206 l 710 -208 l 424 -208 l 414 -206 l 264 -125 l 256 -119 l 126 35 l 124 42 l 43 254 l 43 461 l 128 669 l 257 817 l 264 821 l 411 906 l 424 908 l 708 908 l 719 906 l 858 822 l 863 817 l 969 683 l 1036 532 l 1001 522 l 935 671 l 835 796 l 700 875 l 699 875 l 432 875 l 431 875 l 283 794 l 154 649 l 76 454 l 76 265 l 156 57 l 283 -93 l 426 -171 l 706 -171 l 835 -96 m 299 171 l 265 289 l 264 294 l 264 417 l 265 422 l 304 547 l 307 554 l 375 647 l 379 651 l 450 703 l 463 707 l 610 707 l 622 703 l 699 651 l 703 647 l 769 554 l 772 549 l 781 524 l 781 707 l 815 707 l 815 35 l 868 35 l 996 104 l 1110 256 l 1175 458 l 1175 661 l 1094 847 l 967 990 l 829 1067 l 432 1067 l 432 1103 l 842 1103 l 1000 1014 l 1124 871 l 1211 668 l 1211 450 l 1143 242 l 1018 75 l 882 1 l 610 1 l 564 1 l 463 1 l 450 6 l 379 57 l 375 61 l 317 135 l 299 171 m 338 164 l 400 83 l 467 35 l 544 35 l 607 35 l 678 83 l 742 167 l 781 294 l 781 415 l 740 536 l 675 625 l 606 675 l 467 675 l 401 626 l 335 535 l 299 417 l 299 294 l 324 204 l 338 164 m 781 35 l 781 181 l 772 154 l 769 147 l 703 61 l 697 57 l 664 35 l 781 35 z "},"A":{"ha":1028,"x_min":-11,"x_max":1014,"o":"m 329 811 l 439 811 l 532 775 l 572 742 l 871 1111 l 886 1111 l 897 1111 l 897 449 l 917 467 l 943 506 l 944 506 l 981 571 l 981 661 l 1014 661 l 1014 571 l 1011 561 l 963 469 l 925 431 l 897 404 l 897 0 l 864 0 l 867 375 l 738 319 l 729 318 l 615 318 l 607 319 l 493 372 l 486 376 l 394 463 l 392 467 l 14 -1 l -11 19 l 375 499 l 365 518 l 343 568 l 343 663 l 376 663 l 376 571 l 400 528 l 551 715 l 513 747 l 428 776 l 343 776 l 264 740 l 200 678 l 176 603 l 176 532 l 142 532 l 142 618 l 171 693 l 242 764 l 329 811 m 867 421 l 871 1069 l 865 1056 l 857 1043 l 596 721 l 622 699 l 665 621 l 668 610 l 668 532 l 633 532 l 633 610 l 596 678 l 575 694 l 417 499 l 424 486 l 508 401 l 510 401 l 622 353 l 724 353 l 844 401 l 846 401 l 867 421 z "},"B":{"ha":1121,"x_min":50,"x_max":1039,"o":"m 981 207 l 1007 306 l 1007 307 l 988 431 l 988 432 l 949 515 l 911 561 l 935 581 l 978 531 l 1017 444 l 1019 436 l 1039 308 l 1039 300 l 1011 192 l 1007 183 l 929 88 l 924 81 l 822 19 l 818 15 l 714 -7 l 703 -6 l 614 11 l 621 46 l 708 28 l 710 28 l 808 49 l 810 49 l 903 107 l 981 207 m 963 838 l 953 933 l 913 1006 l 844 1058 l 765 1086 l 776 1119 l 863 1090 l 935 1031 l 985 946 l 997 836 l 971 732 l 968 722 l 908 629 l 899 621 l 799 557 l 792 554 l 738 539 l 708 513 l 703 508 l 593 453 l 585 450 l 453 438 l 325 486 l 82 -7 l 50 10 l 297 503 l 236 556 l 172 665 l 169 672 l 153 778 l 154 786 l 182 874 l 213 863 l 188 778 l 201 681 l 258 583 l 313 535 l 592 1111 l 624 1097 l 339 517 l 456 471 l 581 483 l 654 519 l 664 525 l 553 538 l 475 588 l 492 615 l 571 568 l 572 568 l 672 558 l 674 558 l 718 564 l 747 582 l 790 708 l 822 697 l 792 594 l 879 651 l 939 743 l 963 838 z "},"C":{"ha":1164,"x_min":138,"x_max":1107,"o":"m 1007 1146 l 1049 1072 l 1064 960 l 1044 903 l 1107 822 l 1081 801 l 1032 864 l 1006 783 l 931 710 l 924 707 l 801 672 l 679 693 l 685 726 l 803 707 l 915 740 l 974 801 l 1007 896 l 996 910 l 936 989 l 796 1075 l 519 1075 l 382 999 l 254 856 l 174 669 l 174 467 l 247 264 l 374 113 l 499 36 l 790 36 l 922 113 l 1047 256 l 1074 235 l 942 81 l 806 3 l 793 0 l 490 0 l 479 3 l 351 83 l 214 250 l 138 458 l 138 676 l 225 879 l 349 1022 l 507 1111 l 800 1111 l 954 1021 l 1021 935 l 1031 963 l 1017 1061 l 979 1128 l 1007 1146 z "},"D":{"ha":1215,"x_min":33,"x_max":1188,"o":"m 264 107 l 236 124 l 678 1008 l 710 993 l 264 107 m 347 118 l 369 142 l 451 88 l 486 111 l 515 163 l 544 144 l 515 96 l 513 92 l 482 67 l 528 36 l 853 36 l 976 110 l 976 111 l 978 111 l 1076 250 l 1076 251 l 1153 446 l 1153 632 l 1074 836 l 1074 838 l 1072 839 l 965 997 l 817 1076 l 539 1076 l 396 999 l 379 1028 l 529 1108 l 540 1111 l 824 1111 l 835 1108 l 993 1024 l 1113 853 l 1188 635 l 1188 442 l 1186 435 l 1111 239 l 1106 231 l 996 79 l 874 3 l 864 0 l 519 0 l 454 44 l 438 32 l 354 1 l 349 0 l 333 0 l 254 0 l 231 0 l 225 1 l 136 42 l 71 106 l 68 110 l 33 207 l 46 296 l 69 344 l 100 329 l 79 283 l 69 208 l 100 124 l 154 71 l 232 33 l 254 33 l 333 33 l 347 33 l 411 58 l 422 67 l 347 118 z "},"E":{"ha":778,"x_min":38,"x_max":725,"o":"m 311 1075 l 224 999 l 188 907 l 188 804 l 188 803 l 219 728 l 269 753 l 282 756 l 400 756 l 400 725 l 282 725 l 281 725 l 233 701 l 283 646 l 342 619 l 471 619 l 526 651 l 590 722 l 615 700 l 554 631 l 486 589 l 472 585 l 338 586 l 325 589 l 256 625 l 203 685 l 201 685 l 129 606 l 72 472 l 72 340 l 124 197 l 210 92 l 315 36 l 504 35 l 614 101 l 689 219 l 689 350 l 725 350 l 725 208 l 719 200 l 642 79 l 636 74 l 518 3 l 506 0 l 308 0 l 296 6 l 183 61 l 174 68 l 97 176 l 93 183 l 38 331 l 38 340 l 38 475 l 40 485 l 99 621 l 101 626 l 185 711 l 189 714 l 151 797 l 150 803 l 150 911 l 153 921 l 189 1011 l 194 1019 l 297 1107 l 310 1111 l 447 1111 l 461 1107 l 551 1044 l 557 1040 l 594 969 l 569 953 l 535 1014 l 444 1075 l 311 1075 z "},"F":{"ha":935,"x_min":44,"x_max":1117,"o":"m 369 653 l 507 933 l 536 917 l 404 653 l 689 653 l 689 619 l 389 619 l 74 -1 l 44 14 l 351 619 l 236 619 l 236 653 l 369 653 m 576 1076 l 399 994 l 289 886 l 233 772 l 200 782 l 256 901 l 261 911 l 379 1022 l 386 1026 l 564 1108 l 571 1111 l 774 1111 l 783 1110 l 949 1058 l 935 1026 l 772 1076 l 576 1076 m 1033 997 l 1081 1083 l 1081 1164 l 1117 1164 l 1117 1082 l 1113 1071 l 1064 985 l 1060 978 l 972 899 l 964 894 l 829 839 l 819 836 l 689 836 l 689 869 l 819 869 l 951 925 l 1033 997 z "},"G":{"ha":1156,"x_min":94,"x_max":1139,"o":"m 742 475 l 742 442 l 1021 442 l 1021 250 l 894 103 l 761 24 l 481 24 l 336 103 l 335 103 l 208 254 l 129 463 l 129 663 l 208 860 l 336 997 l 481 1076 l 760 1076 l 906 988 l 992 894 l 988 886 l 906 790 l 811 742 l 692 735 l 599 760 l 588 728 l 688 700 l 817 707 l 929 765 l 1017 868 l 1071 808 l 1093 831 l 1032 899 l 1067 976 l 1068 1088 l 1033 1165 l 1004 1150 l 1035 1081 l 1033 982 l 1007 926 l 929 1013 l 928 1014 l 775 1108 l 767 1111 l 476 1111 l 468 1110 l 317 1025 l 313 1022 l 178 875 l 94 672 l 94 460 l 178 239 l 179 236 l 311 78 l 468 -8 l 476 -10 l 765 -10 l 772 -8 l 915 75 l 1054 238 l 1054 442 l 1139 442 l 1139 475 l 1054 475 l 1054 532 l 1021 532 l 1021 475 l 742 475 z "},"H":{"ha":1367,"x_min":0,"x_max":1376,"o":"m 251 782 l 346 874 l 417 904 l 467 922 l 518 922 l 628 1115 l 656 1099 l 557 922 l 582 922 l 688 874 l 694 871 l 775 794 l 824 703 l 828 690 l 828 606 l 794 606 l 794 688 l 750 776 l 675 843 l 674 844 l 572 890 l 539 890 l 43 8 l 0 8 l 500 890 l 469 890 l 360 842 l 358 842 l 276 764 l 238 688 l 238 607 l 201 607 l 201 688 l 251 782 m 1222 500 l 1122 408 l 1051 378 l 1001 361 l 975 361 l 782 6 l 740 6 l 935 361 l 886 361 l 781 411 l 774 414 l 694 492 l 646 583 l 643 596 l 643 681 l 675 681 l 675 599 l 719 511 l 793 442 l 794 440 l 897 393 l 899 392 l 951 392 l 1346 1111 l 1376 1097 l 992 392 l 997 392 l 999 392 l 1110 440 l 1111 440 l 1193 517 l 1193 518 l 1233 592 l 1233 674 l 1268 674 l 1268 592 l 1222 500 z "},"I":{"ha":969,"x_min":15,"x_max":1103,"o":"m 242 836 l 242 906 l 261 975 l 306 1033 l 364 1072 l 444 1083 l 524 1063 l 596 1015 l 647 940 l 746 875 l 803 875 l 444 108 l 383 53 l 303 29 l 194 29 l 104 74 l 43 140 l 15 115 l 85 42 l 186 -8 l 307 -8 l 407 21 l 469 79 l 474 88 l 840 875 l 872 875 l 964 903 l 1053 961 l 1103 1050 l 1074 1068 l 1025 983 l 950 936 l 879 915 l 860 915 l 943 1094 l 913 1111 l 821 915 l 756 915 l 672 965 l 621 1040 l 533 1096 l 444 1115 l 351 1103 l 285 1061 l 228 992 l 204 906 l 204 836 l 242 836 z "},"J":{"ha":986,"x_min":31,"x_max":1151,"o":"m 60 -90 l 56 -82 l 31 106 l 31 114 l 88 315 l 90 321 l 204 486 l 210 492 l 360 597 l 379 568 l 231 464 l 121 304 l 64 107 l 89 -74 l 169 -208 l 142 -226 l 60 -90 m 421 965 l 418 961 l 346 872 l 318 894 l 394 986 l 542 1074 l 553 1076 l 783 1076 l 824 1163 l 853 1150 l 821 1076 l 1015 1076 l 1015 1042 l 807 1042 l 233 -112 l 204 -96 l 768 1042 l 557 1042 l 421 965 m 1151 1164 l 1151 1075 l 1117 978 l 1114 974 l 1049 910 l 963 886 l 957 885 l 863 885 l 863 917 l 956 917 l 1032 938 l 1088 990 l 1118 1076 l 1118 1164 l 1151 1164 z "},"K":{"ha":1321,"x_min":-75,"x_max":1285,"o":"m 942 479 l 1008 261 l 1008 260 l 1008 257 l 992 0 l 958 0 l 975 254 l 913 461 l 860 533 l 610 533 l 610 569 l 832 569 l 763 664 l 572 786 l 565 788 l 172 -1 l 167 -12 l 136 3 l 142 14 l 531 796 l 401 828 l 400 828 l 100 738 l -50 588 l -75 613 l 75 763 l 82 768 l 396 863 l 404 863 l 546 828 l 686 1111 l 719 1099 l 581 819 l 583 819 l 588 818 l 785 690 l 874 571 l 1044 642 l 1176 765 l 1247 896 l 1247 1111 l 1285 1111 l 1281 892 l 1281 890 l 1279 885 l 1206 744 l 1067 613 l 896 542 l 942 479 z "},"L":{"ha":925,"x_min":-37,"x_max":917,"o":"m 146 -3 l 115 14 l 228 235 l 210 240 l 122 231 l 57 189 l 8 125 l -1 65 l 13 7 l -22 -1 l -37 65 l -24 143 l 33 215 l 110 264 l 214 276 l 244 267 l 675 1111 l 706 1097 l 278 257 l 321 244 l 408 172 l 456 74 l 539 26 l 657 11 l 761 39 l 833 85 l 885 175 l 917 157 l 864 63 l 775 4 l 658 -26 l 529 -10 l 428 47 l 382 146 l 310 210 l 261 225 l 146 -3 z "},"M":{"ha":1449,"x_min":-36,"x_max":1517,"o":"m 1435 990 l 1481 1113 l 1517 1100 l 1469 976 l 1057 -3 l 1019 -3 l 1399 901 l 1381 882 l 1269 800 l 1099 732 l 1010 718 l 1010 575 l 975 575 l 975 700 l 972 713 l 903 703 l 763 751 l 775 785 l 907 739 l 954 746 l 831 968 l 654 1074 l 615 1074 l 6 0 l -36 0 l 574 1074 l 365 1074 l 365 1111 l 661 1111 l 843 1001 l 858 990 l 993 753 l 1094 768 l 1260 838 l 1354 910 l 1435 990 z "},"N":{"ha":1410,"x_min":0,"x_max":1514,"o":"m 711 0 l 689 0 l 676 0 l 572 1049 l 40 0 l 0 0 l 567 1110 l 604 1110 l 707 36 l 1135 874 l 1071 915 l 1019 983 l 1004 1032 l 1040 1044 l 1054 996 l 1097 940 l 1150 904 l 1256 1111 l 1286 1099 l 1182 892 l 1247 881 l 1347 899 l 1418 942 l 1461 1004 l 1475 1061 l 1476 1111 l 1514 1111 l 1513 1057 l 1496 988 l 1439 913 l 1357 864 l 1246 843 l 1165 860 l 729 0 l 711 0 z "},"O":{"ha":1140,"x_min":56,"x_max":1131,"o":"m 56 668 l 147 876 l 276 1024 l 283 1028 l 431 1107 l 443 1110 l 728 1111 l 739 1107 l 878 1029 l 882 1024 l 989 890 l 1024 824 l 1075 875 l 1094 928 l 1094 994 l 1131 994 l 1131 926 l 1128 915 l 1108 861 l 1104 856 l 1039 789 l 1094 672 l 1096 663 l 1096 469 l 1094 463 l 1019 250 l 1015 243 l 883 88 l 876 83 l 740 1 l 729 -1 l 443 -1 l 433 1 l 283 82 l 275 88 l 146 242 l 143 249 l 63 461 l 56 668 m 624 915 l 622 925 l 622 996 l 658 996 l 658 926 l 688 861 l 753 801 l 831 768 l 918 768 l 994 803 l 943 893 l 854 1003 l 719 1079 l 718 1079 l 451 1079 l 450 1079 l 303 1001 l 174 856 l 96 661 l 96 472 l 175 264 l 303 114 l 446 36 l 725 36 l 854 111 l 985 264 l 1060 475 l 1060 663 l 1010 769 l 931 736 l 922 735 l 828 735 l 819 736 l 735 772 l 657 846 l 624 915 z "},"P":{"ha":1007,"x_min":40,"x_max":1090,"o":"m 71 0 l 40 19 l 503 939 l 532 919 l 71 0 m 1057 369 l 1057 449 l 1025 511 l 963 571 l 944 579 l 938 550 l 917 506 l 854 413 l 844 406 l 739 354 l 724 385 l 831 438 l 886 518 l 903 557 l 913 593 l 883 607 l 797 607 l 713 569 l 711 569 l 646 506 l 614 446 l 614 368 l 581 368 l 581 458 l 618 528 l 622 533 l 692 599 l 696 603 l 785 640 l 793 642 l 885 642 l 893 640 l 921 628 l 929 657 l 921 803 l 864 921 l 753 1024 l 753 1025 l 629 1078 l 485 1078 l 340 1003 l 340 1001 l 339 1001 l 283 918 l 283 917 l 261 836 l 225 836 l 249 925 l 251 932 l 314 1024 l 324 1032 l 475 1108 l 488 1111 l 631 1111 l 639 1110 l 768 1057 l 889 944 l 894 936 l 953 814 l 956 806 l 964 657 l 964 651 l 954 613 l 976 603 l 1049 538 l 1090 460 l 1090 369 l 1057 369 z "},"Q":{"ha":1300,"x_min":68,"x_max":1243,"o":"m 578 206 l 515 147 l 481 78 l 481 35 l 724 35 l 771 61 l 736 128 l 733 139 l 733 210 l 768 210 l 768 143 l 800 79 l 886 147 l 828 203 l 744 240 l 665 240 l 578 206 m 910 174 l 982 260 l 1054 465 l 1054 657 l 983 850 l 854 994 l 853 996 l 724 1076 l 449 1076 l 310 996 l 185 856 l 104 660 l 104 463 l 183 258 l 308 108 l 440 38 l 444 36 l 444 83 l 485 161 l 489 168 l 558 232 l 564 238 l 654 274 l 664 275 l 746 275 l 756 274 l 840 236 l 847 232 l 910 174 m 1142 -12 l 1057 -50 l 940 -50 l 933 -49 l 847 -12 l 794 35 l 736 3 l 726 0 l 446 0 l 435 3 l 288 81 l 279 86 l 153 239 l 71 456 l 68 463 l 68 663 l 151 868 l 294 1024 l 438 1108 l 449 1111 l 729 1111 l 740 1108 l 876 1021 l 1010 872 l 1014 865 l 1088 669 l 1089 661 l 1089 461 l 1013 244 l 928 143 l 954 85 l 954 36 l 919 36 l 919 83 l 903 114 l 826 53 l 863 18 l 949 -15 l 1046 -15 l 1124 17 l 1174 76 l 1208 144 l 1208 207 l 1243 207 l 1243 140 l 1240 131 l 1204 60 l 1142 -12 z "},"R":{"ha":986,"x_min":1,"x_max":988,"o":"m 625 503 l 651 519 l 725 392 l 793 436 l 849 524 l 867 614 l 861 619 l 778 656 l 686 656 l 608 618 l 550 574 l 511 506 l 511 456 l 478 456 l 478 508 l 481 517 l 522 592 l 525 596 l 590 647 l 678 689 l 788 689 l 874 651 l 868 792 l 817 931 l 731 1018 l 588 1078 l 411 1078 l 290 1003 l 226 913 l 207 811 l 171 811 l 192 919 l 194 928 l 264 1025 l 274 1033 l 403 1108 l 415 1111 l 589 1111 l 597 1108 l 746 1050 l 751 1044 l 842 953 l 847 946 l 900 804 l 901 796 l 907 651 l 901 625 l 954 575 l 988 496 l 988 443 l 956 443 l 956 494 l 932 551 l 894 588 l 881 513 l 815 410 l 806 403 l 743 363 l 943 15 l 915 -3 l 715 344 l 690 328 l 575 328 l 575 361 l 676 361 l 699 375 l 625 503 m 32 0 l 1 15 l 382 922 l 414 907 l 32 0 z "},"S":{"ha":1033,"x_min":-33,"x_max":1151,"o":"m 435 847 l 467 931 l 501 1013 l 636 1111 l 829 1111 l 958 1015 l 1001 918 l 972 904 l 935 988 l 819 1075 l 644 1075 l 526 985 l 472 836 l 488 688 l 610 540 l 660 364 l 624 215 l 621 210 l 543 85 l 396 0 l 182 0 l 176 3 l 46 106 l -33 258 l -33 350 l 1 350 l 1 267 l 71 129 l 189 36 l 389 36 l 518 113 l 592 231 l 624 367 l 575 532 l 574 532 l 574 535 l 574 532 l 450 682 l 435 847 m 804 782 l 871 763 l 958 763 l 1031 796 l 1081 849 l 1117 943 l 1117 1026 l 1094 1099 l 1058 1139 l 1083 1164 l 1122 1122 q 1139 1074 1129 1106 q 1151 1036 1149 1043 q 1151 933 1151 1036 l 1113 831 l 1051 768 l 971 728 l 871 728 l 793 751 l 804 782 z "},"T":{"ha":824,"x_min":33,"x_max":1086,"o":"m 1086 1164 l 1086 1050 l 1028 932 l 1025 928 l 954 867 l 846 836 l 840 835 l 738 835 l 738 869 l 839 869 l 938 897 l 1004 954 l 1053 1058 l 1053 1164 l 1086 1164 m 617 1165 l 649 1150 l 611 1076 l 960 1076 l 960 1042 l 593 1042 l 65 0 l 49 8 l 33 15 l 554 1042 l 308 1042 l 163 958 l 74 843 l 44 865 l 136 983 l 139 986 l 294 1076 l 572 1076 l 617 1165 z "},"U":{"ha":1460,"x_min":-56,"x_max":1471,"o":"m -22 0 l -56 21 l 214 515 l 515 1088 l 529 1111 l 556 1090 l 232 475 l 232 342 l 286 201 l 357 97 l 474 36 l 642 36 l 724 86 l 725 88 l 799 169 l 819 213 l 792 329 l 790 339 l 799 474 l 801 483 l 857 590 l 888 575 l 888 574 l 833 471 l 825 339 l 843 257 l 1271 1111 l 1303 1099 l 858 210 l 940 94 l 1057 35 l 1206 35 l 1313 86 l 1383 188 l 1439 336 l 1471 322 l 1418 175 l 1413 167 l 1340 64 l 1333 58 l 1218 0 l 1050 0 l 1035 4 l 925 61 l 919 67 l 839 171 l 825 144 l 746 58 l 654 4 l 643 1 l 468 1 l 456 4 l 335 67 l 329 74 l 256 178 l 253 186 l 197 333 l 196 342 l 197 410 l -22 0 z "},"V":{"ha":1224,"x_min":260,"x_max":1571,"o":"m 292 1111 l 260 1111 l 260 0 l 285 0 l 1013 939 l 1072 851 l 1161 782 l 1281 754 l 1399 776 l 1503 835 l 1561 910 l 1571 981 l 1536 981 l 1528 924 l 1481 864 l 1392 813 l 1282 790 l 1278 790 l 1178 814 l 1097 878 l 1039 963 l 1038 969 l 1132 1092 l 1110 1111 l 1028 1007 l 1017 1050 l 1024 1111 l 986 1111 l 978 1050 l 1000 972 l 297 78 l 292 69 l 292 1111 m 776 1103 l 760 1053 l 725 1064 l 744 1121 l 818 1193 l 928 1249 l 1053 1260 l 1165 1226 l 1258 1146 l 1317 1046 l 1336 942 l 1318 881 l 1283 893 l 1299 944 l 1299 946 l 1299 949 l 1283 1032 l 1283 1035 l 1282 1036 l 1232 1122 l 1149 1193 l 1053 1224 l 939 1214 l 836 1163 l 776 1103 z "},"W":{"ha":1672,"x_min":103,"x_max":1906,"o":"m 965 939 l 1028 915 l 1113 915 l 1194 949 l 1254 1001 l 1292 1069 l 1292 1111 l 1326 1111 l 1326 1064 l 1288 989 l 1214 919 l 1118 879 l 1028 879 l 946 908 l 894 953 l 672 674 l 672 75 l 675 79 l 1507 1111 l 1531 1088 l 1368 883 l 1394 838 l 1468 789 l 1565 765 l 1568 765 l 1679 775 l 1763 821 l 1839 915 l 1868 1022 l 1868 1107 l 1868 1108 l 1844 1157 l 1875 1169 l 1906 1110 l 1906 1014 l 1869 896 l 1788 794 l 1690 740 l 1567 728 l 1454 756 l 1365 814 l 1343 853 l 667 1 l 639 1 l 636 629 l 135 0 l 103 0 l 103 1111 l 142 1111 l 142 72 l 636 689 l 633 1111 l 672 1111 l 672 735 l 865 976 l 826 1060 l 826 1111 l 861 1111 l 861 1072 l 893 1011 l 974 1111 l 1003 1089 l 918 982 l 965 939 m 1643 989 l 1643 893 l 1621 850 l 1653 835 l 1678 879 l 1678 990 l 1647 1097 l 1572 1196 l 1476 1251 l 1346 1268 l 1226 1239 l 1139 1183 l 1110 1132 l 1139 1115 l 1167 1160 l 1238 1206 l 1347 1233 l 1463 1219 l 1549 1169 l 1615 1079 l 1643 989 z "},"X":{"ha":1418,"x_min":-217,"x_max":1468,"o":"m 1336 883 l 1407 946 l 1433 1031 l 1433 1111 l 1468 1111 l 1468 1024 l 1438 929 l 1354 853 l 1233 811 l 1110 811 l 1029 835 l 1039 867 l 1114 846 l 1224 846 l 1336 883 m 1251 918 l 1246 925 l 1171 1018 l 1169 1019 l 1054 1076 l 951 1076 l 886 1076 l 775 994 l 774 994 l 669 858 l 596 653 l 596 465 l 667 253 l 774 117 l 908 38 l 1043 38 l 1043 0 l 903 0 l 892 3 l 751 88 l 638 231 l 578 408 l 525 232 l 406 88 l 263 1 l 257 0 l 24 0 l 19 1 l -121 92 l -217 257 l -189 278 l -96 119 l -94 118 l 32 36 l 250 36 l 383 118 l 494 250 l 556 467 l 556 475 l 556 653 l 483 865 l 400 999 l 265 1081 l 147 1081 l 147 1115 l 275 1115 l 422 1028 l 424 1026 l 515 882 l 576 710 l 638 876 l 729 999 l 754 1025 l 876 1111 l 956 1111 l 990 1111 l 1068 1111 l 1193 1049 l 1197 1046 l 1199 1042 l 1200 1042 l 1282 942 l 1251 918 z "},"Y":{"ha":1035,"x_min":40,"x_max":1364,"o":"m 558 878 l 558 953 l 607 1044 l 693 1131 l 781 1171 l 897 1171 l 1003 1122 l 1092 1040 l 1129 958 l 1129 883 l 1163 883 l 1163 969 l 1111 1072 l 1019 1154 l 914 1204 l 768 1204 l 661 1154 l 575 1068 l 525 972 l 525 878 l 558 878 m 396 406 l 126 0 l 174 0 l 767 901 l 808 819 l 886 733 l 999 683 l 1140 683 l 1253 731 l 1333 797 l 1364 917 l 1332 929 l 1307 829 l 1233 761 l 1129 719 l 1008 719 l 919 757 l 840 840 l 792 939 l 892 1090 l 863 1111 l 789 1000 l 789 1111 l 753 1111 l 753 946 l 419 442 l 71 1111 l 40 1092 l 396 406 z "},"Z":{"ha":964,"x_min":49,"x_max":1001,"o":"m 69 -3 l 53 83 l 78 156 l 135 225 l 211 269 l 293 278 l 335 268 l 628 843 l 617 844 l 515 901 l 450 1014 l 390 1057 l 296 1081 l 218 1074 l 144 1039 l 99 983 l 86 919 l 97 857 l 163 783 l 139 763 l 67 832 l 49 919 l 67 1000 l 124 1065 l 207 1106 l 300 1114 l 410 1086 l 485 1031 l 540 932 l 633 878 l 644 876 l 764 1111 l 794 1096 l 681 874 l 744 867 l 849 893 l 924 939 l 969 1021 l 1001 1006 l 953 915 l 863 858 l 746 828 l 664 839 l 369 260 l 396 253 l 475 200 l 519 122 l 610 53 l 735 32 l 858 57 l 935 101 l 964 167 l 996 156 l 960 75 l 872 22 l 736 -4 l 600 17 l 492 97 l 447 176 l 389 217 l 353 226 l 233 -8 l 201 6 l 318 235 l 289 242 l 222 236 l 153 194 l 110 139 l 90 83 l 104 7 l 69 -3 z "},"[":{"ha":1017,"x_min":175,"x_max":1036,"o":"m 783 1114 l 214 -1 l 474 -1 l 474 -36 l 175 -36 l 175 -1 l 764 1149 l 1036 1149 l 1036 1114 l 783 1114 z "},"\\":{"ha":678,"x_min":-3,"x_max":694,"o":"m 26 1024 l 694 24 l 661 1 l -3 1000 l 26 1024 z "},"]":{"ha":986,"x_min":89,"x_max":940,"o":"m 668 1114 l 668 1149 l 921 1149 l 940 1149 l 940 1114 l 349 -37 l 89 -37 l 89 -3 l 328 -3 l 903 1114 l 668 1114 z "},"_":{"ha":668,"x_min":63,"x_max":606,"o":"m 63 0 l 63 39 l 606 39 l 606 0 l 63 0 z "},"a":{"ha":828,"x_min":111,"x_max":663,"o":"m 146 169 l 113 288 l 111 293 l 111 415 l 113 421 l 151 546 l 154 553 l 222 646 l 226 650 l 297 701 l 310 706 l 457 706 l 469 701 l 546 650 l 550 646 l 617 553 l 619 547 l 628 522 l 628 706 l 663 706 l 663 0 l 628 0 l 628 179 l 619 153 l 617 146 l 550 60 l 544 56 l 468 4 l 457 0 l 310 0 l 297 4 l 226 56 l 222 60 l 164 133 l 146 169 m 185 163 l 247 82 l 314 33 l 454 33 l 525 82 l 589 165 l 628 293 l 628 414 l 588 535 l 522 624 l 453 674 l 314 674 l 249 625 l 182 533 l 146 415 l 146 293 l 171 203 l 185 163 z "},"b":{"ha":750,"x_min":132,"x_max":683,"o":"m 544 74 l 611 165 l 650 290 l 650 415 l 611 535 l 543 621 l 474 668 l 338 668 l 272 621 l 204 538 l 168 417 l 168 292 l 204 164 l 271 75 l 336 29 l 474 29 l 544 74 m 683 297 l 682 292 l 640 157 l 638 151 l 571 58 l 565 51 l 489 3 l 478 0 l 331 0 l 318 4 l 247 53 l 243 57 l 175 150 l 172 157 l 167 176 l 167 0 l 132 0 l 132 1025 l 167 1025 l 167 533 l 172 551 l 175 558 l 243 643 l 247 647 l 318 701 l 331 706 l 478 706 l 490 701 l 567 649 l 571 644 l 638 558 l 640 553 l 682 428 l 683 421 l 683 297 z "},"c":{"ha":729,"x_min":21,"x_max":663,"o":"m 567 81 l 635 179 l 663 160 l 593 60 l 588 56 l 511 4 l 500 0 l 353 0 l 340 4 l 272 51 l 268 56 l 199 154 l 196 161 l 169 238 l 50 -6 l 21 8 l 157 289 l 157 411 l 158 417 l 193 546 l 196 553 l 265 646 l 269 650 l 340 701 l 353 706 l 499 706 l 510 701 l 588 650 l 593 646 l 663 549 l 635 529 l 564 626 l 564 628 l 494 672 l 358 672 l 293 625 l 292 624 l 228 532 l 192 413 l 192 289 l 228 171 l 294 78 l 357 33 l 494 33 l 565 79 l 567 81 z "},"d":{"ha":774,"x_min":69,"x_max":642,"o":"m 228 82 l 231 79 l 303 32 l 438 32 l 503 79 l 571 169 l 607 297 l 607 424 l 572 540 l 506 624 l 439 674 l 300 674 l 232 629 l 164 542 l 125 422 l 125 297 l 158 190 l 207 286 l 236 269 l 178 153 l 228 82 m 642 0 l 607 0 l 607 178 l 601 158 l 599 151 l 531 58 l 456 4 l 443 0 l 296 0 l 285 4 l 208 54 l 203 60 l 160 118 l 100 -1 l 69 13 l 139 150 l 133 157 l 92 294 l 90 300 l 90 421 l 133 557 l 136 563 l 203 646 l 207 650 l 283 700 l 296 706 l 443 706 l 456 700 l 526 650 l 599 563 l 601 556 l 607 538 l 607 1025 l 642 1025 l 642 0 z "},"e":{"ha":679,"x_min":69,"x_max":610,"o":"m 206 622 l 140 532 l 107 425 l 571 425 l 544 535 l 479 625 l 411 672 l 272 672 l 206 622 m 547 175 l 576 157 l 511 58 l 504 51 l 426 3 l 415 0 l 268 0 l 256 4 l 181 60 l 113 156 l 110 163 l 69 299 l 69 414 l 71 419 l 113 551 l 185 649 l 256 701 l 268 706 l 415 706 l 428 701 l 508 644 l 575 551 l 579 543 l 610 425 l 610 392 l 104 392 l 104 299 l 140 176 l 206 82 l 272 33 l 413 33 l 483 82 l 547 175 z "},"f":{"ha":550,"x_min":81,"x_max":543,"o":"m 490 675 l 250 675 l 250 0 l 215 0 l 215 675 l 81 675 l 81 708 l 215 708 l 215 875 l 135 796 l 113 817 l 215 919 l 215 1025 l 249 1025 l 249 953 l 315 1019 l 325 1025 l 442 1025 l 454 1022 l 507 982 l 511 976 l 543 917 l 543 858 l 511 858 l 511 915 l 485 958 l 439 992 l 335 992 l 249 907 l 249 708 l 490 708 l 490 675 z "},"g":{"ha":714,"x_min":103,"x_max":686,"o":"m 281 706 l 408 706 l 418 701 l 483 658 l 510 628 l 600 719 l 624 694 l 531 601 l 547 574 l 579 482 l 579 386 l 578 379 l 542 271 l 478 192 l 418 153 l 408 150 l 281 150 l 271 153 l 206 192 l 201 196 l 167 240 l 151 229 l 139 194 l 139 146 l 164 107 l 207 79 l 319 79 l 329 79 l 489 79 l 501 76 l 617 31 l 683 -43 l 686 -51 l 686 -140 l 685 -149 l 639 -219 l 488 -278 l 326 -278 l 176 -221 l 126 -144 l 125 -137 l 125 -53 l 126 -46 l 200 19 l 232 38 l 261 51 l 200 51 l 139 89 l 107 142 l 107 199 l 125 246 l 150 264 l 136 290 l 103 386 l 103 481 l 104 486 l 143 581 l 201 660 l 271 703 l 281 706 m 286 674 l 228 638 l 172 565 l 138 481 l 138 389 l 165 308 l 176 282 l 207 294 l 283 294 l 283 264 l 214 264 l 196 257 l 225 218 l 286 182 l 404 182 l 457 217 l 513 289 l 544 389 l 544 481 l 514 567 l 454 639 l 403 674 l 286 674 m 325 49 l 225 -1 l 163 -60 l 163 -136 l 200 -194 l 331 -246 l 483 -246 l 608 -199 l 651 -137 l 651 -58 l 599 0 l 483 49 l 325 49 z "},"h":{"ha":732,"x_min":56,"x_max":635,"o":"m 199 531 l 199 0 l 163 0 l 163 476 l 85 354 l 56 375 l 161 536 l 161 1025 l 197 1025 l 197 588 l 239 646 l 318 701 l 331 706 l 476 706 l 489 701 l 563 646 l 631 556 l 635 543 l 635 0 l 600 0 l 600 538 l 538 624 l 472 672 l 335 672 l 265 625 l 199 531 z "},"i":{"ha":396,"x_min":81,"x_max":249,"o":"m 249 706 l 249 686 l 249 374 l 249 0 l 215 0 l 215 375 l 215 669 l 81 669 l 81 706 l 249 706 m 249 836 l 214 836 l 214 969 l 249 969 l 249 836 z "},"j":{"ha":400,"x_min":-21,"x_max":253,"o":"m 253 836 l 218 836 l 218 969 l 253 969 l 253 836 m 253 -75 l 253 -110 l 204 -185 l 129 -240 l 119 -243 l -21 -243 l -21 -206 l 113 -206 l 181 -154 l 215 -94 l 219 669 l 79 669 l 79 706 l 253 706 l 253 -75 z "},"k":{"ha":636,"x_min":42,"x_max":636,"o":"m 550 803 l 572 775 l 422 647 l 264 503 l 636 19 l 608 -1 l 236 481 l 158 419 l 163 0 l 128 0 l 124 389 l 63 333 l 42 360 l 124 432 l 124 1025 l 158 1025 l 158 463 l 550 803 z "},"l":{"ha":279,"x_min":111,"x_max":147,"o":"m 147 1025 l 147 0 l 111 0 l 111 1025 l 147 1025 z "},"m":{"ha":1025,"x_min":42,"x_max":956,"o":"m 251 635 l 249 631 l 208 575 l 208 0 l 174 0 l 174 517 l 72 351 l 42 369 l 174 585 l 174 706 l 208 706 l 208 633 l 228 661 l 232 665 l 286 701 l 299 706 l 449 706 l 461 701 l 517 665 l 521 661 l 563 607 l 604 664 l 658 701 l 671 706 l 803 706 l 815 701 l 874 660 l 924 593 l 926 586 l 956 490 l 956 0 l 921 0 l 921 493 l 896 574 l 846 639 l 797 672 l 676 672 l 625 638 l 579 574 l 579 0 l 544 0 l 544 514 l 444 351 l 415 369 l 542 578 l 492 642 l 444 672 l 303 672 l 251 635 z "},"n":{"ha":726,"x_min":25,"x_max":636,"o":"m 599 592 l 603 586 l 635 510 l 636 501 l 636 0 l 601 0 l 601 500 l 569 574 l 515 635 l 447 672 l 338 672 l 264 635 l 206 568 l 179 531 l 179 0 l 144 0 l 144 446 l 144 453 l 144 481 l 57 354 l 25 372 l 144 544 l 144 706 l 179 706 l 179 594 l 239 658 l 244 663 l 325 703 l 335 706 l 450 706 l 460 703 l 535 663 l 540 658 l 599 592 z "},"o":{"ha":683,"x_min":67,"x_max":617,"o":"m 481 82 l 546 176 l 546 178 l 582 294 l 582 417 l 547 532 l 546 533 l 481 622 l 415 672 l 278 672 l 208 624 l 144 538 l 103 411 l 103 299 l 144 171 l 206 82 l 276 33 l 414 33 l 481 82 m 114 158 l 111 163 l 67 296 l 67 413 l 111 547 l 114 553 l 181 644 l 185 649 l 261 701 l 274 706 l 419 706 l 432 701 l 503 649 l 507 644 l 574 553 l 576 546 l 615 421 l 617 415 l 617 294 l 615 289 l 576 164 l 574 158 l 507 61 l 503 56 l 432 4 l 419 0 l 274 0 l 263 4 l 186 56 l 181 61 l 114 158 z "},"p":{"ha":753,"x_min":132,"x_max":683,"o":"m 614 533 l 613 535 l 547 622 l 482 672 l 344 672 l 275 624 l 211 539 l 167 411 l 167 314 l 211 171 l 272 82 l 343 33 l 481 33 l 547 82 l 613 176 l 613 178 l 649 301 l 649 424 l 614 533 m 683 301 l 682 296 l 643 164 l 640 158 l 574 61 l 569 56 l 499 4 l 486 0 l 340 0 l 329 4 l 253 56 l 247 61 l 181 158 l 178 163 l 167 196 l 167 -278 l 132 -278 l 132 706 l 167 706 l 167 521 l 178 549 l 181 554 l 247 644 l 251 649 l 328 701 l 340 706 l 486 706 l 499 701 l 569 649 l 574 644 l 640 554 l 643 547 l 682 428 l 683 422 l 683 301 z "},"q":{"ha":753,"x_min":69,"x_max":621,"o":"m 476 624 l 407 672 l 272 672 l 208 625 l 140 533 l 104 415 l 104 293 l 140 169 l 208 78 l 271 33 l 408 33 l 479 79 l 543 169 l 582 293 l 582 414 l 543 532 l 476 624 m 574 546 l 586 508 l 586 706 l 621 706 l 621 -278 l 586 -278 l 586 196 l 575 160 l 571 151 l 506 61 l 500 56 l 424 4 l 413 0 l 267 0 l 254 4 l 183 56 l 179 60 l 111 149 l 108 156 l 71 289 l 69 294 l 69 415 l 71 421 l 108 546 l 111 553 l 179 644 l 183 649 l 254 701 l 267 706 l 413 706 l 425 701 l 501 649 l 506 644 l 571 551 l 574 546 z "},"r":{"ha":631,"x_min":86,"x_max":624,"o":"m 111 369 l 86 390 l 193 542 l 193 706 l 228 706 l 228 592 l 264 643 l 268 649 l 299 671 l 306 675 l 360 703 l 369 706 l 474 706 l 486 703 l 536 675 l 543 671 l 592 624 l 596 617 l 624 549 l 590 535 l 560 606 l 514 649 l 469 674 l 375 674 l 324 650 l 297 631 l 228 533 l 228 0 l 193 0 l 193 485 l 111 369 z "},"s":{"ha":589,"x_min":69,"x_max":519,"o":"m 489 101 l 485 94 l 424 33 l 368 3 l 356 0 l 236 0 l 226 3 l 165 33 l 160 38 l 106 94 l 100 101 l 69 176 l 104 188 l 131 117 l 188 58 l 238 32 l 353 32 l 404 60 l 432 90 l 457 118 l 486 183 l 486 256 l 456 321 l 407 372 l 406 372 l 346 392 l 210 392 l 197 396 l 153 415 l 144 421 l 110 475 l 106 482 l 106 543 l 107 551 l 129 618 l 133 624 l 182 671 l 189 675 l 243 703 l 253 706 l 357 706 l 369 703 l 419 675 l 426 671 l 475 624 l 479 617 l 513 539 l 479 525 l 443 606 l 397 649 l 353 674 l 258 674 l 207 650 l 163 606 l 142 540 l 142 492 l 168 446 l 221 424 l 350 424 l 363 421 l 424 400 l 428 396 l 485 342 l 489 335 l 519 263 l 519 176 l 489 101 z "},"t":{"ha":496,"x_min":76,"x_max":468,"o":"m 229 671 l 229 0 l 194 0 l 194 671 l 76 671 l 76 706 l 193 706 l 193 1025 l 228 1025 l 228 706 l 468 706 l 468 671 l 229 671 z "},"u":{"ha":833,"x_min":28,"x_max":701,"o":"m 625 171 l 667 303 l 667 706 l 701 706 l 701 0 l 667 0 l 667 189 l 656 158 l 589 61 l 583 56 l 507 4 l 496 0 l 372 0 l 360 4 l 290 56 l 286 60 l 218 157 l 215 164 l 189 257 l 57 -4 l 28 10 l 176 307 l 176 706 l 211 706 l 211 301 l 247 174 l 311 82 l 378 33 l 490 33 l 565 83 l 625 171 z "},"v":{"ha":632,"x_min":56,"x_max":576,"o":"m 89 706 l 317 46 l 543 706 l 576 694 l 336 0 l 297 0 l 56 696 l 89 706 z "},"w":{"ha":1168,"x_min":69,"x_max":1125,"o":"m 774 39 l 1097 707 l 1125 692 l 792 0 l 756 0 l 597 328 l 439 0 l 403 0 l 69 692 l 94 706 l 419 39 l 576 368 l 421 690 l 446 707 l 596 406 l 742 707 l 772 692 l 617 365 l 774 39 z "},"x":{"ha":658,"x_min":56,"x_max":603,"o":"m 326 408 l 533 706 l 561 683 l 347 378 l 603 15 l 576 -6 l 326 350 l 82 0 l 56 21 l 306 379 l 90 686 l 117 706 l 326 408 z "},"y":{"ha":674,"x_min":56,"x_max":625,"o":"m 88 708 l 342 93 l 593 707 l 625 686 l 228 -278 l 193 -264 l 322 44 l 56 689 l 88 708 z "},"z":{"ha":638,"x_min":42,"x_max":594,"o":"m 594 675 l 86 36 l 594 36 l 594 0 l 42 0 l 42 35 l 43 35 l 546 669 l 42 669 l 42 706 l 594 706 l 594 675 z "},"{":{"ha":1033,"x_min":158,"x_max":1036,"o":"m 764 1149 l 601 833 l 299 833 l 286 799 l 478 586 l 158 -35 l 474 -35 l 474 0 l 215 0 l 522 592 l 503 614 l 338 799 l 624 799 l 783 1114 l 1036 1114 l 1036 1149 l 764 1149 z "},"|":{"ha":675,"x_min":319,"x_max":356,"o":"m 356 1025 l 356 0 l 319 0 l 319 1025 l 356 1025 z "},"}":{"ha":1036,"x_min":0,"x_max":878,"o":"m 253 0 l 419 324 l 706 324 l 540 508 l 521 531 l 821 1114 l 563 1114 l 563 1149 l 878 1149 l 565 538 l 757 324 l 744 290 l 442 290 l 272 -35 l 0 -35 l 0 0 l 253 0 z "},"~":{"ha":760,"x_min":39,"x_max":739,"o":"m 67 958 l 86 924 l 151 867 l 238 832 l 318 835 l 408 876 l 453 917 l 475 892 l 429 851 l 422 846 l 333 801 l 325 800 l 236 797 l 226 799 l 139 835 l 135 838 l 64 897 l 58 903 l 39 943 l 67 958 m 322 906 l 290 917 l 303 958 l 307 965 l 365 1038 l 369 1042 l 449 1093 l 458 1096 l 546 1110 l 553 1110 l 650 1083 l 657 1079 l 739 1032 l 722 1003 l 642 1050 l 544 1074 l 465 1063 l 388 1013 l 335 944 l 322 906 z "},"":{"ha":933,"x_min":132,"x_max":864,"o":"m 675 0 l 675 -278 l 640 -278 l 640 0 l 640 33 l 640 49 l 132 49 l 132 83 l 592 839 l 621 821 l 172 83 l 640 83 l 640 350 l 672 350 l 675 83 l 864 83 l 864 49 l 675 49 l 675 33 l 675 0 z "},"":{"ha":933,"x_min":88,"x_max":778,"o":"m 519 478 l 519 0 l 485 0 l 485 478 l 485 511 l 485 522 l 88 522 l 88 557 l 463 1182 l 492 1164 l 128 557 l 485 557 l 485 728 l 517 728 l 519 557 l 778 557 l 778 522 l 519 522 l 519 511 l 519 478 z "},"":{"ha":794,"x_min":38,"x_max":708,"o":"m 165 601 l 135 611 l 413 1060 l 442 1044 l 165 601 m 336 1074 l 336 1110 l 708 1110 l 708 1074 l 336 1074 m 275 714 l 390 714 l 403 710 l 474 657 l 478 653 l 544 561 l 547 554 l 586 429 l 588 424 l 588 303 l 586 297 l 547 165 l 544 160 l 478 63 l 474 57 l 403 6 l 390 1 l 244 1 l 233 6 l 157 57 l 151 63 l 85 160 l 82 164 l 38 304 l 38 421 l 74 421 l 74 307 l 115 172 l 176 83 l 247 35 l 385 35 l 451 83 l 517 178 l 517 179 l 553 303 l 553 425 l 518 540 l 517 542 l 451 631 l 386 681 l 275 681 l 275 714 z "},"":{"ha":697,"x_min":83,"x_max":633,"o":"m 131 147 l 197 50 l 203 44 l 279 -7 l 290 -11 l 436 -11 l 449 -7 l 519 44 l 524 50 l 590 147 l 593 153 l 632 285 l 633 290 l 633 411 l 632 417 l 593 542 l 590 549 l 524 640 l 519 644 l 449 697 l 436 701 l 290 701 l 278 697 l 201 644 l 197 640 l 131 549 l 128 543 l 118 514 l 118 692 l 118 814 l 154 939 l 219 1033 l 286 1082 l 424 1082 l 494 1033 l 556 944 l 586 863 l 586 789 l 622 789 l 622 865 l 589 953 l 586 957 l 519 1054 l 514 1060 l 438 1111 l 426 1115 l 281 1115 l 268 1111 l 197 1060 l 193 1054 l 126 957 l 124 951 l 85 819 l 83 814 l 83 408 l 83 358 l 83 292 l 128 151 l 131 147 m 497 618 l 564 528 l 599 413 l 599 290 l 563 167 l 497 71 l 431 22 l 293 22 l 222 71 l 161 160 l 119 294 l 119 407 l 161 533 l 225 619 l 294 668 l 432 668 l 497 618 z "},"":{"ha":833,"x_min":19,"x_max":708,"o":"m 51 -6 l 22 11 l 667 1076 l 19 1075 l 19 1110 l 708 1111 l 708 1089 l 708 1076 l 51 -6 z "},"":{"ha":849,"x_min":32,"x_max":1503,"o":"m 1503 1361 m 79 156 l 76 160 l 32 300 l 32 417 l 76 551 l 79 557 l 146 649 l 150 653 l 226 706 l 239 710 l 363 710 l 340 757 l 339 763 l 339 904 l 340 910 l 404 1031 l 407 1036 l 508 1110 l 521 1114 l 667 1114 l 678 1110 l 775 1036 l 835 911 l 835 760 l 776 632 l 669 546 l 543 546 l 581 425 l 582 419 l 582 299 l 581 293 l 542 161 l 539 156 l 472 58 l 468 53 l 397 1 l 385 -3 l 239 -3 l 228 1 l 151 53 l 146 58 l 79 156 m 511 175 l 547 299 l 547 421 l 511 538 l 463 631 l 381 676 l 243 676 l 174 628 l 110 542 l 68 415 l 68 303 l 110 168 l 171 79 l 242 31 l 379 31 l 446 79 l 511 175 m 435 1017 l 374 904 l 374 761 l 399 706 l 483 656 l 524 579 l 657 579 l 746 653 l 799 765 l 799 908 l 742 1021 l 664 1081 l 526 1081 l 435 1017 z "},"":{"ha":717,"x_min":97,"x_max":636,"o":"m 479 1121 l 576 1047 l 636 922 l 636 774 l 636 771 l 636 422 l 636 293 l 635 288 l 596 164 l 593 158 l 526 61 l 522 56 l 451 4 l 439 0 l 293 0 l 282 4 l 206 56 l 200 61 l 133 158 l 131 163 l 97 250 l 97 326 l 133 326 l 133 253 l 164 171 l 225 82 l 296 33 l 433 33 l 500 82 l 565 176 l 565 178 l 601 301 l 601 424 l 601 694 l 581 649 l 578 643 l 471 557 l 307 557 l 196 654 l 142 768 l 140 774 l 140 915 l 142 921 l 206 1042 l 208 1047 l 310 1121 l 322 1125 l 468 1125 l 479 1121 m 236 1028 l 175 915 l 175 772 l 229 668 l 231 667 l 321 590 l 458 590 l 547 664 l 600 776 l 600 919 l 543 1032 l 465 1092 l 328 1092 l 236 1028 z "},"":{"ha":776,"x_min":72,"x_max":668,"o":"m 467 1108 l 554 1032 l 557 1025 l 607 931 l 607 824 l 571 713 l 481 653 l 558 610 l 563 606 l 625 525 l 628 518 l 667 401 l 668 396 l 668 289 l 667 283 l 628 171 l 625 165 l 558 68 l 554 63 l 474 4 l 461 0 l 285 0 l 274 4 l 188 56 l 182 61 l 114 169 l 111 174 l 72 293 l 72 369 l 72 406 l 115 518 l 118 525 l 181 606 l 185 610 l 268 657 l 182 717 l 146 828 l 146 871 l 146 919 l 146 940 l 192 1033 l 194 1039 l 282 1108 l 294 1113 l 454 1113 l 467 1108 m 206 586 l 144 504 l 108 401 l 108 369 l 108 296 l 144 182 l 207 82 l 288 33 l 456 33 l 532 89 l 597 183 l 597 185 l 633 289 l 633 397 l 599 504 l 597 506 l 536 583 l 447 632 l 436 632 l 307 632 l 296 632 l 206 586 m 444 668 l 540 733 l 572 836 l 572 926 l 526 1011 l 450 1079 l 299 1079 l 225 1024 l 181 933 l 181 921 l 181 907 l 181 840 l 213 738 l 310 668 l 436 668 l 444 668 z "},"":{"ha":746,"x_min":57,"x_max":707,"o":"m 92 326 l 92 217 l 146 113 l 147 111 l 238 35 l 375 35 l 464 108 l 513 221 l 513 379 l 300 172 l 278 196 l 486 400 l 364 400 l 351 404 l 275 457 l 271 461 l 204 553 l 201 558 l 157 693 l 157 810 l 201 950 l 204 954 l 271 1051 l 276 1057 l 353 1108 l 364 1113 l 510 1113 l 522 1108 l 593 1057 l 597 1051 l 664 954 l 667 949 l 706 817 l 707 811 l 707 690 l 706 685 l 667 560 l 664 553 l 597 461 l 593 457 l 586 451 l 550 417 l 549 215 l 497 93 l 494 88 l 388 1 l 224 1 l 113 99 l 58 213 l 57 218 l 57 326 l 92 326 m 571 1031 l 504 1079 l 367 1079 l 296 1031 l 235 942 l 193 807 l 193 694 l 235 568 l 299 482 l 368 433 l 506 433 l 571 483 l 636 572 l 638 574 l 672 689 l 672 811 l 636 935 l 636 936 l 571 1031 z "},"":{"ha":988,"x_min":7,"x_max":719,"o":"m 485 1033 l 418 1082 l 281 1082 l 210 1033 l 149 944 l 107 810 l 107 697 l 149 571 l 194 510 l 303 542 l 308 543 l 429 543 l 435 542 l 508 518 l 550 575 l 551 576 l 586 692 l 586 814 l 550 938 l 550 939 l 485 1033 m 118 957 l 185 1054 l 190 1060 l 267 1111 l 278 1115 l 424 1115 l 436 1111 l 507 1060 l 511 1054 l 578 957 l 581 951 l 619 819 l 621 814 l 621 693 l 619 688 l 581 563 l 578 556 l 543 508 l 560 503 l 567 500 l 658 433 l 663 429 l 715 358 l 719 346 l 719 200 l 715 188 l 663 111 l 658 107 l 567 40 l 561 38 l 426 -7 l 310 -7 l 169 38 l 165 40 l 68 107 l 63 113 l 11 189 l 7 200 l 7 346 l 11 358 l 63 429 l 68 433 l 161 497 l 118 556 l 115 561 l 71 696 l 71 813 l 115 953 l 118 957 m 89 407 l 40 340 l 40 203 l 89 132 l 178 71 l 313 29 l 425 29 l 551 71 l 638 135 l 686 204 l 686 342 l 636 407 l 547 472 l 546 474 l 524 481 l 511 464 l 507 460 l 436 407 l 424 403 l 278 403 l 265 407 l 189 460 l 185 464 l 181 469 l 89 407 m 217 482 l 282 436 l 419 436 l 485 486 l 489 490 l 431 508 l 308 508 l 217 482 z "},"":{"ha":797,"x_min":99,"x_max":665,"o":"m 631 785 l 631 896 l 576 1000 l 575 1001 l 485 1078 l 347 1078 l 258 1004 l 210 892 l 210 781 l 174 781 l 174 897 l 225 1019 l 228 1025 l 335 1111 l 499 1111 l 610 1014 l 664 900 l 665 894 l 665 785 l 631 785 m 513 83 l 578 178 l 578 179 l 614 303 l 614 425 l 579 540 l 578 542 l 513 631 l 447 681 l 310 681 l 240 632 l 185 558 l 181 550 l 179 550 l 176 546 l 135 419 l 135 307 l 176 172 l 238 83 l 308 35 l 446 35 l 513 83 m 146 160 l 143 164 l 99 304 l 99 421 l 143 556 l 146 561 l 154 572 l 365 924 l 394 906 l 265 690 l 293 710 l 306 714 l 451 714 l 464 710 l 535 657 l 539 653 l 606 561 l 608 554 l 647 429 l 649 424 l 649 303 l 647 297 l 608 165 l 606 160 l 539 63 l 535 57 l 464 6 l 451 1 l 306 1 l 294 6 l 218 57 l 213 63 l 146 160 z "},"":{"ha":839,"x_min":43,"x_max":739,"o":"m 328 1078 l 328 1113 l 739 1113 l 739 1078 l 475 1078 l 167 578 l 138 596 l 435 1078 l 328 1078 m 308 681 l 308 714 l 396 714 l 408 710 l 479 657 l 483 653 l 550 561 l 553 554 l 592 429 l 593 424 l 593 303 l 592 297 l 553 165 l 550 160 l 483 63 l 479 57 l 408 6 l 396 1 l 250 1 l 239 6 l 163 57 l 157 63 l 90 160 l 88 164 l 43 304 l 43 408 l 79 408 l 79 307 l 121 172 l 182 83 l 253 35 l 390 35 l 457 83 l 522 178 l 522 179 l 558 303 l 558 425 l 524 540 l 522 542 l 457 631 l 392 681 l 315 681 l 308 681 z "},"":{"ha":850,"x_min":79,"x_max":729,"o":"m 428 119 l 399 138 l 569 428 l 535 404 l 522 400 l 376 400 l 364 404 l 293 457 l 289 461 l 222 553 l 219 560 l 181 685 l 179 690 l 179 811 l 181 817 l 219 949 l 222 954 l 289 1051 l 293 1057 l 364 1108 l 376 1113 l 522 1113 l 533 1108 l 610 1057 l 615 1051 l 682 954 l 685 950 l 729 810 l 729 693 l 685 558 l 682 553 l 428 119 m 603 153 l 538 58 l 533 53 l 446 4 l 433 0 l 288 0 l 276 4 l 181 61 l 175 67 l 113 163 l 79 275 l 79 369 l 115 369 l 115 278 l 146 171 l 200 88 l 290 33 l 428 33 l 511 79 l 575 171 l 603 153 m 315 1031 l 250 936 l 250 935 l 214 811 l 214 689 l 249 574 l 250 572 l 315 483 l 381 433 l 518 433 l 588 482 l 651 568 l 693 694 l 693 807 l 651 942 l 590 1031 l 519 1079 l 382 1079 l 315 1031 z "},"":{"ha":382,"x_min":-200,"x_max":486,"o":"m 451 278 l 451 401 l 486 401 l 486 256 l 483 246 l 433 147 l 429 142 l 339 58 l 333 54 l 215 1 l 207 0 l 90 0 l 82 1 l -44 56 l -50 60 l -143 150 l -147 156 l -197 251 l -200 261 l -200 401 l -165 401 l -165 264 l -118 171 l -119 174 l -26 86 l 97 35 l 204 35 l 317 85 l 407 168 l 451 278 z "},"":{"ha":553,"x_min":53,"x_max":504,"o":"m 115 361 l 172 300 l 222 274 l 338 274 l 389 301 l 428 342 l 394 383 l 393 383 l 331 403 l 214 403 l 201 407 l 140 431 l 132 436 l 93 503 l 89 510 l 89 565 l 90 574 l 113 633 l 117 639 l 165 686 l 172 690 l 181 694 l 138 714 l 129 719 l 94 774 l 90 781 l 90 842 l 92 850 l 114 917 l 118 922 l 167 969 l 174 974 l 228 1001 l 238 1004 l 342 1004 l 354 1001 l 404 974 l 411 969 l 460 922 l 464 915 l 497 838 l 464 824 l 428 904 l 382 947 l 338 972 l 243 972 l 192 949 l 147 904 l 126 839 l 126 790 l 153 744 l 206 722 l 335 722 l 358 717 l 408 699 l 413 694 l 469 640 l 474 633 l 504 561 l 504 418 l 474 343 l 471 340 l 501 271 l 501 179 l 472 104 l 468 97 l 407 36 l 351 6 l 339 3 l 219 3 l 210 6 l 149 36 l 143 40 l 89 97 l 83 104 l 53 179 l 88 190 l 113 119 l 171 61 l 221 35 l 336 35 l 388 63 l 415 93 l 440 121 l 468 186 l 468 264 l 444 314 l 408 275 l 353 244 l 340 242 l 221 242 l 211 244 l 150 275 l 144 279 l 93 339 l 115 361 m 449 369 l 471 425 l 471 554 l 440 619 l 392 671 l 390 671 l 335 689 l 242 689 l 190 665 l 146 621 l 125 563 l 125 519 l 156 461 l 225 435 l 335 435 l 347 432 l 411 411 l 415 407 l 449 369 z "},"":{"ha":240,"x_min":-189,"x_max":490,"o":"m -189 425 l 490 425 l 490 392 l -189 392 l -189 425 z "},"“":{"ha":669,"x_min":50,"x_max":635,"o":"m 542 731 l 467 772 l 411 840 l 386 928 l 385 1019 l 425 1096 l 396 1111 l 354 1033 l 351 1024 l 351 924 l 353 917 l 381 825 l 383 818 l 442 747 l 449 743 l 528 699 l 539 696 l 635 696 l 635 731 l 542 731 m 240 728 l 165 769 l 110 838 l 85 925 l 83 1017 l 124 1093 l 94 1108 l 53 1031 l 50 1021 l 50 921 l 51 914 l 79 822 l 82 815 l 140 744 l 147 740 l 226 696 l 238 693 l 333 693 l 333 728 l 240 728 z "},"”":{"ha":679,"x_min":56,"x_max":636,"o":"m 446 1076 l 353 1076 l 353 1111 l 449 1111 l 460 1108 l 539 1064 l 546 1060 l 604 989 l 607 982 l 635 890 l 636 883 l 636 783 l 633 774 l 592 696 l 563 711 l 603 788 l 601 879 l 576 967 l 521 1035 l 446 1076 m 149 1076 l 56 1076 l 56 1111 l 151 1111 l 163 1108 l 242 1064 l 249 1060 l 307 989 l 310 982 l 338 890 l 339 883 l 339 783 l 336 774 l 294 696 l 265 711 l 306 788 l 304 879 l 279 967 l 224 1035 l 149 1076 z "},"©":{"ha":1424,"x_min":136,"x_max":1129,"o":"m 928 114 l 950 86 l 814 4 l 803 1 l 517 1 l 507 4 l 357 85 l 349 90 l 219 244 l 217 251 l 136 464 l 136 671 l 221 879 l 350 1026 l 357 1031 l 504 1115 l 517 1118 l 801 1118 l 813 1115 l 951 1032 l 956 1026 l 1063 893 l 1129 742 l 1094 732 l 1028 881 l 928 1006 l 793 1085 l 792 1085 l 525 1085 l 524 1085 l 376 1004 l 247 858 l 169 664 l 169 475 l 249 267 l 269 242 l 394 500 l 394 622 l 396 628 l 431 757 l 433 764 l 503 857 l 507 861 l 578 913 l 590 917 l 736 917 l 747 913 l 825 861 l 831 857 l 900 760 l 872 740 l 801 838 l 801 839 l 732 883 l 596 883 l 531 836 l 529 835 l 465 743 l 429 624 l 429 500 l 465 382 l 532 289 l 594 244 l 732 244 l 803 290 l 804 292 l 872 390 l 900 371 l 831 271 l 825 267 l 749 215 l 738 211 l 590 211 l 578 215 l 510 263 l 506 267 l 436 365 l 433 372 l 407 449 l 292 215 l 376 117 l 519 39 l 799 39 l 928 114 z "},"®":{"ha":1424,"x_min":136,"x_max":1129,"o":"m 928 114 l 950 86 l 814 4 l 803 1 l 517 1 l 507 4 l 357 85 l 349 90 l 219 244 l 217 251 l 136 464 l 136 671 l 221 879 l 350 1026 l 357 1031 l 504 1115 l 517 1118 l 801 1118 l 813 1115 l 951 1032 l 956 1026 l 1063 893 l 1129 742 l 1094 732 l 1028 881 l 928 1006 l 793 1085 l 792 1085 l 525 1085 l 524 1085 l 376 1004 l 247 858 l 169 664 l 169 475 l 249 267 l 376 117 l 519 39 l 799 39 l 928 114 m 403 540 l 378 561 l 485 713 l 485 876 l 519 876 l 519 763 l 556 814 l 560 819 l 590 842 l 597 846 l 651 874 l 661 876 l 765 876 l 778 874 l 828 846 l 835 842 l 883 794 l 888 788 l 915 719 l 882 706 l 851 776 l 806 819 l 761 844 l 667 844 l 615 821 l 589 801 l 519 704 l 519 171 l 485 171 l 485 656 l 403 540 z "},"¡":{"ha":292,"x_min":139,"x_max":194,"o":"m 150 869 l 188 869 l 192 0 l 150 0 l 150 869 m 139 1111 l 194 1111 l 194 1019 l 139 1019 l 139 1111 z "},"¢":{"ha":729,"x_min":72,"x_max":696,"o":"m 194 161 l 157 289 l 157 411 l 158 417 l 193 546 l 196 553 l 265 646 l 269 650 l 340 701 l 353 706 l 499 706 l 510 701 l 563 667 l 667 814 l 696 794 l 592 647 l 593 646 l 663 549 l 635 529 l 571 617 l 243 150 l 294 78 l 357 33 l 494 33 l 565 79 l 567 81 l 635 179 l 663 160 l 593 60 l 588 56 l 511 4 l 500 0 l 353 0 l 340 4 l 272 51 l 268 56 l 222 119 l 101 -53 l 72 -33 l 201 150 l 199 154 l 194 161 m 544 640 l 494 672 l 358 672 l 293 625 l 292 624 l 228 532 l 192 413 l 192 289 l 224 183 l 544 640 z "},"£":{"ha":1118,"x_min":100,"x_max":1018,"o":"m 210 853 l 276 1011 l 278 1013 l 413 1111 l 606 1111 l 731 1015 l 788 892 l 756 878 l 707 988 l 596 1075 l 421 1075 l 303 985 l 249 836 l 264 688 l 326 613 l 622 613 l 622 578 l 356 578 l 386 540 l 436 364 l 400 215 q 391 200 396 208 q 382 185 386 192 q 372 171 378 179 q 363 157 367 163 q 354 143 360 151 q 344 129 349 135 l 500 129 l 638 36 l 790 36 l 917 90 l 989 199 l 1018 176 l 932 58 l 794 0 l 625 0 l 489 93 l 322 93 l 167 -10 l 150 21 l 297 121 l 367 231 l 400 367 l 351 532 l 350 532 l 350 535 l 350 532 l 313 578 l 100 578 l 100 613 l 283 613 l 226 682 l 210 853 z "},"§":{"ha":1472,"x_min":119,"x_max":1399,"o":"m 586 582 l 653 740 l 654 742 l 789 840 l 831 840 l 831 847 l 897 1006 l 899 1007 l 1033 1106 l 1226 1106 l 1356 1010 l 1399 892 l 1369 881 l 1332 982 l 1217 1069 l 1042 1069 l 924 979 l 874 840 l 982 840 l 1111 744 l 1154 626 l 1125 615 l 1088 717 l 972 804 l 872 804 l 885 682 l 1007 535 l 1057 358 l 1021 210 q 976 137 1006 183 q 940 79 947 90 l 793 -6 l 789 -6 l 776 -56 q 732 -128 761 -82 q 696 -186 703 -175 l 549 -271 l 335 -271 l 329 -268 l 199 -165 l 119 -12 l 119 79 l 154 79 l 154 -4 l 224 -142 l 342 -235 l 542 -235 l 671 -158 l 743 -40 l 751 -6 l 579 -6 l 574 -3 l 443 100 l 364 253 l 364 344 l 399 344 l 399 261 l 468 124 l 586 31 l 760 31 l 776 96 l 728 261 l 726 261 l 726 264 l 726 261 l 603 411 l 586 582 m 763 269 l 813 93 l 799 39 l 915 107 l 988 225 l 1021 361 l 972 526 l 971 526 l 971 529 l 971 526 l 847 676 l 835 804 l 797 804 l 679 714 l 625 565 l 640 417 l 763 269 z "},"≥":{"ha":833,"x_min":69,"x_max":749,"o":"m 747 151 l 336 822 l 307 804 l 707 151 l 74 151 l 74 117 l 747 117 l 747 151 m 749 33 l 69 33 l 69 0 l 749 0 l 749 33 z "},"≤":{"ha":833,"x_min":69,"x_max":749,"o":"m 71 151 l 482 822 l 511 804 l 111 151 l 744 151 l 744 117 l 71 117 l 71 151 m 69 33 l 749 33 l 749 0 l 69 0 l 69 33 z "},"«":{"ha":750,"x_min":65,"x_max":589,"o":"m 449 53 l 513 19 l 589 18 l 588 -17 l 513 -17 l 504 -14 l 431 24 l 424 29 l 361 96 l 358 101 l 319 188 l 317 197 l 318 285 l 319 292 l 358 385 l 363 392 l 429 461 l 435 465 l 508 501 l 517 504 l 589 504 l 588 469 l 521 469 l 453 435 l 392 369 l 353 279 l 353 197 l 390 115 l 449 53 m 99 413 l 111 342 l 156 281 l 126 261 l 82 321 l 79 329 l 65 411 l 65 419 l 82 510 l 83 515 l 129 599 l 136 606 l 207 657 l 214 661 l 311 685 l 319 685 l 415 674 l 422 671 l 494 635 l 501 629 l 544 572 l 517 551 l 476 606 l 408 639 l 319 650 l 224 625 l 158 578 l 114 499 l 99 413 z "},"°":{"ha":456,"x_min":44,"x_max":285,"o":"m 258 869 l 285 922 l 285 985 l 258 1040 l 200 1076 l 179 1076 l 124 1076 l 65 1039 l 81 1013 l 131 1046 l 192 1046 l 233 1021 l 253 982 l 253 932 l 233 892 l 197 864 l 133 864 l 96 892 l 72 939 l 44 924 l 75 867 l 125 832 l 203 832 l 258 869 z "},"±":{"ha":708,"x_min":39,"x_max":678,"o":"m 39 383 l 39 422 l 349 422 l 349 706 l 388 706 l 388 422 l 676 422 l 676 383 l 388 383 l 388 39 l 678 39 l 678 0 l 49 0 l 49 39 l 349 39 l 349 383 l 39 383 z "},"´":{"ha":431,"x_min":38,"x_max":201,"o":"m 71 811 l 38 829 l 167 1113 l 201 1094 l 71 811 z "},"µ":{"ha":833,"x_min":176,"x_max":701,"o":"m 176 307 l 176 326 l 176 706 l 211 706 l 211 326 l 211 301 l 247 174 l 311 82 l 378 33 l 490 33 l 565 83 l 625 171 l 667 303 l 667 706 l 701 706 l 701 0 l 667 0 l 667 189 l 656 158 l 589 61 l 583 56 l 507 4 l 496 0 l 372 0 l 360 4 l 290 56 l 286 60 l 218 157 l 215 164 l 211 176 l 211 -278 l 176 -278 l 176 285 l 176 307 z "},"¶":{"ha":724,"x_min":60,"x_max":729,"o":"m 126 114 l 96 101 l 60 185 l 68 272 l 108 360 l 151 407 l 89 546 l 89 692 l 144 846 l 236 953 l 243 957 l 369 1024 l 382 1026 l 564 1026 l 576 1025 l 667 974 l 672 968 l 729 899 l 697 882 l 646 946 l 644 946 l 563 994 l 563 1 l 526 1 l 526 304 l 504 357 l 451 400 l 419 413 l 419 268 l 493 268 l 493 233 l 419 233 l 419 0 l 383 0 l 383 233 l 375 233 l 364 235 l 265 289 l 226 318 l 174 378 l 135 336 l 100 257 l 94 188 l 126 114 m 383 268 l 383 426 l 365 433 l 272 433 l 199 401 l 254 340 l 288 314 l 374 268 l 383 268 m 383 992 l 258 929 l 174 824 l 124 682 l 124 550 l 178 432 l 263 468 l 271 469 l 367 469 l 372 468 l 383 464 l 383 992 m 526 994 l 419 994 l 419 450 l 463 435 l 468 432 l 526 385 l 526 994 z "},"·":{"ha":306,"x_min":125,"x_max":181,"o":"m 125 367 l 125 471 l 181 471 l 181 367 l 125 367 z "},"»":{"ha":833,"x_min":244,"x_max":768,"o":"m 385 479 l 443 542 l 481 624 l 481 706 l 442 796 l 381 861 l 313 896 l 246 896 l 244 931 l 317 931 l 325 928 l 399 892 l 404 888 l 471 818 l 475 811 l 514 718 l 515 710 l 517 624 l 514 614 l 475 528 l 472 522 l 410 456 l 403 450 l 329 413 l 321 410 l 246 410 l 244 444 l 321 446 l 385 479 m 735 839 l 719 925 l 675 1004 l 610 1051 l 514 1076 l 425 1065 l 357 1032 l 317 978 l 289 997 l 332 1056 l 339 1061 l 411 1097 l 418 1100 l 514 1111 l 522 1111 l 619 1088 l 626 1083 l 697 1032 l 704 1025 l 750 942 l 751 936 l 768 846 l 768 838 l 754 756 l 751 747 l 707 688 l 678 707 l 722 768 l 735 839 z "},"^":{"ha":760,"x_min":210,"x_max":497,"o":"m 243 810 l 210 828 l 340 1111 l 369 1111 l 497 826 l 468 811 l 356 1054 l 243 810 z "},"ˇ":{"ha":760,"x_min":210,"x_max":497,"o":"m 243 1111 l 210 1093 l 340 810 l 369 810 l 497 1094 l 468 1110 l 356 867 l 243 1111 z "},"¿":{"ha":806,"x_min":167,"x_max":710,"o":"m 167 372 l 203 372 l 203 294 l 242 168 l 306 82 l 375 33 l 513 33 l 578 83 l 643 172 l 644 174 l 674 271 l 674 313 l 674 383 l 632 482 l 560 568 l 426 621 l 426 847 l 460 847 l 460 647 l 574 601 l 657 510 l 663 504 l 707 397 l 710 392 l 708 313 l 708 272 l 707 267 l 674 160 l 671 153 l 604 61 l 600 57 l 529 4 l 517 0 l 371 0 l 358 4 l 282 57 l 278 61 l 211 153 l 208 158 l 167 293 l 167 372 m 418 1110 l 474 1110 l 474 1018 l 418 1018 l 418 1110 z "},"À":{"ha":1047,"x_min":-11,"x_max":1025,"o":"m 703 1543 l 676 1461 l 679 1371 l 715 1297 l 789 1232 l 874 1199 l 949 1199 l 1010 1229 l 1025 1197 l 961 1167 l 951 1164 l 871 1164 l 860 1167 l 774 1200 l 767 1204 l 690 1271 l 686 1278 l 647 1356 l 644 1365 l 642 1460 l 643 1465 l 669 1553 l 674 1561 l 722 1626 l 729 1633 l 797 1665 l 813 1635 l 746 1601 l 703 1543 m 329 811 l 439 811 l 532 775 l 572 742 l 871 1111 l 896 1111 l 897 449 l 917 467 l 943 506 l 944 506 l 981 571 l 981 661 l 1014 661 l 1014 571 l 1011 561 l 963 469 l 925 431 l 897 404 l 897 0 l 864 0 l 864 375 l 738 319 l 729 318 l 615 318 l 607 319 l 493 372 l 486 376 l 394 463 l 392 467 l 14 -1 l -11 19 l 375 499 l 365 518 l 343 568 l 343 663 l 376 663 l 376 571 l 400 528 l 551 715 l 513 747 l 428 776 l 343 776 l 264 740 l 200 678 l 176 603 l 176 532 l 142 532 l 142 618 l 171 693 l 242 764 l 329 811 m 864 418 l 863 1051 l 857 1043 l 596 721 l 622 699 l 665 621 l 668 610 l 668 532 l 633 532 l 633 610 l 596 678 l 575 694 l 417 499 l 424 486 l 508 401 l 510 401 l 622 353 l 724 353 l 844 401 l 846 401 l 864 418 z "},"Á":{"ha":1028,"x_min":-11,"x_max":1033,"o":"m 329 811 l 439 811 l 532 775 l 572 742 l 871 1111 l 896 1111 l 897 449 l 917 467 l 943 506 l 944 506 l 981 571 l 981 661 l 1014 661 l 1014 571 l 1011 561 l 963 469 l 925 431 l 897 404 l 897 0 l 864 0 l 864 375 l 738 319 l 729 318 l 615 318 l 607 319 l 493 372 l 486 376 l 394 463 l 392 467 l 14 -1 l -11 19 l 375 499 l 365 518 l 343 568 l 343 663 l 376 663 l 376 571 l 400 528 l 551 715 l 513 747 l 428 776 l 343 776 l 264 740 l 200 678 l 176 603 l 176 532 l 142 532 l 142 618 l 171 693 l 242 764 l 329 811 m 972 1542 l 929 1600 l 863 1633 l 878 1664 l 946 1632 l 953 1625 l 1001 1560 l 1006 1551 l 1032 1464 l 1033 1458 l 1031 1364 l 1029 1354 l 989 1276 l 985 1269 l 908 1203 l 901 1199 l 811 1164 l 804 1163 l 724 1163 l 714 1165 l 650 1196 l 665 1228 l 726 1197 l 801 1197 l 886 1231 l 960 1296 l 996 1369 l 999 1460 l 972 1542 m 864 418 l 863 1051 l 857 1043 l 596 721 l 622 699 l 665 621 l 668 610 l 668 532 l 633 532 l 633 610 l 596 678 l 575 694 l 417 499 l 424 486 l 508 401 l 510 401 l 622 353 l 724 353 l 844 401 l 846 401 l 864 418 z "},"Â":{"ha":1028,"x_min":-11,"x_max":1239,"o":"m 329 811 l 439 811 l 532 775 l 572 742 l 871 1111 l 896 1111 l 897 449 l 917 467 l 943 506 l 944 506 l 981 571 l 981 661 l 1014 661 l 1014 571 l 1011 561 l 963 469 l 925 431 l 897 404 l 897 0 l 864 0 l 864 375 l 738 319 l 729 318 l 615 318 l 607 319 l 493 372 l 486 376 l 394 463 l 392 467 l 14 -1 l -11 19 l 375 499 l 365 518 l 343 568 l 343 663 l 376 663 l 376 571 l 400 528 l 551 715 l 513 747 l 428 776 l 343 776 l 264 740 l 200 678 l 176 603 l 176 532 l 142 532 l 142 618 l 171 693 l 242 764 l 329 811 m 949 1375 l 935 1304 l 940 1265 l 975 1296 l 1011 1369 l 1014 1460 l 988 1542 l 944 1600 l 878 1633 l 893 1664 l 961 1632 l 968 1625 l 1017 1560 l 1021 1551 l 1047 1464 l 1049 1458 l 1046 1364 l 1044 1354 l 1004 1276 l 1000 1269 l 946 1222 l 946 1218 l 988 1138 l 1050 1088 l 1146 1057 l 1239 1057 l 1239 1024 l 1144 1024 l 1138 1025 l 1040 1053 l 1033 1057 l 964 1110 l 958 1118 l 917 1199 l 826 1164 l 819 1163 l 739 1163 l 729 1165 l 665 1196 l 681 1228 l 742 1197 l 817 1197 l 901 1231 l 910 1238 l 900 1299 l 900 1307 l 917 1382 l 949 1375 m 864 418 l 863 1051 l 857 1043 l 596 721 l 622 699 l 665 621 l 668 610 l 668 532 l 633 532 l 633 610 l 596 678 l 575 694 l 417 499 l 424 486 l 508 401 l 510 401 l 622 353 l 724 353 l 844 401 l 846 401 l 864 418 z "},"Ã":{"ha":1028,"x_min":-11,"x_max":1014,"o":"m 329 811 l 439 811 l 532 775 l 572 742 l 871 1111 l 896 1111 l 897 449 l 917 467 l 943 506 l 944 506 l 981 571 l 981 661 l 1014 661 l 1014 571 l 1011 561 l 963 469 l 925 431 l 897 404 l 897 0 l 864 0 l 864 375 l 738 319 l 729 318 l 615 318 l 607 319 l 493 372 l 486 376 l 394 463 l 392 467 l 14 -1 l -11 19 l 375 499 l 365 518 l 343 568 l 343 663 l 376 663 l 376 571 l 400 528 l 551 715 l 513 747 l 428 776 l 343 776 l 264 740 l 200 678 l 176 603 l 176 532 l 142 532 l 142 618 l 171 693 l 242 764 l 329 811 m 864 418 l 863 1051 l 857 1043 l 596 721 l 622 699 l 665 621 l 668 610 l 668 532 l 633 532 l 633 610 l 596 678 l 575 694 l 417 499 l 424 486 l 508 401 l 510 401 l 622 353 l 724 353 l 844 401 l 846 401 l 864 418 z "},"Ä":{"ha":1028,"x_min":-11,"x_max":1014,"o":"m 329 811 l 439 811 l 532 775 l 572 742 l 871 1111 l 896 1111 l 897 449 l 917 467 l 943 506 l 944 506 l 981 571 l 981 661 l 1014 661 l 1014 571 l 1011 561 l 963 469 l 925 431 l 897 404 l 897 0 l 864 0 l 864 375 l 738 319 l 729 318 l 615 318 l 607 319 l 493 372 l 486 376 l 394 463 l 392 467 l 14 -1 l -11 19 l 375 499 l 365 518 l 343 568 l 343 663 l 376 663 l 376 571 l 400 528 l 551 715 l 513 747 l 428 776 l 343 776 l 264 740 l 200 678 l 176 603 l 176 532 l 142 532 l 142 618 l 171 693 l 242 764 l 329 811 m 826 1164 l 792 1164 l 792 1286 l 826 1286 l 826 1164 m 971 1164 l 936 1164 l 936 1286 l 971 1286 l 971 1164 m 864 418 l 863 1051 l 857 1043 l 596 721 l 622 699 l 665 621 l 668 610 l 668 532 l 633 532 l 633 610 l 596 678 l 575 694 l 417 499 l 424 486 l 508 401 l 510 401 l 622 353 l 724 353 l 844 401 l 846 401 l 864 418 z "},"Å":{"ha":1028,"x_min":-11,"x_max":1014,"o":"m 329 811 l 439 811 l 532 775 l 572 742 l 871 1111 l 896 1111 l 897 449 l 917 467 l 943 506 l 944 506 l 981 571 l 981 661 l 1014 661 l 1014 571 l 1011 561 l 963 469 l 925 431 l 897 404 l 897 0 l 864 0 l 864 375 l 738 319 l 729 318 l 615 318 l 607 319 l 493 372 l 486 376 l 394 463 l 392 467 l 14 -1 l -11 19 l 375 499 l 365 518 l 343 568 l 343 663 l 376 663 l 376 571 l 400 528 l 551 715 l 513 747 l 428 776 l 343 776 l 264 740 l 200 678 l 176 603 l 176 532 l 142 532 l 142 618 l 171 693 l 242 764 l 329 811 m 982 1207 l 1008 1260 l 1008 1322 l 982 1378 l 924 1414 l 903 1414 l 847 1414 l 789 1376 l 804 1350 l 854 1383 l 915 1383 l 957 1358 l 976 1319 l 976 1269 l 957 1229 l 921 1201 l 857 1201 l 819 1229 l 796 1276 l 768 1261 l 799 1204 l 849 1169 l 926 1169 l 982 1207 m 864 418 l 863 1051 l 857 1043 l 596 721 l 622 699 l 665 621 l 668 610 l 668 532 l 633 532 l 633 610 l 596 678 l 575 694 l 417 499 l 424 486 l 508 401 l 510 401 l 622 353 l 724 353 l 844 401 l 846 401 l 864 418 z "},"Æ":{"ha":1028,"x_min":-11,"x_max":1594,"o":"m 1000 540 l 963 469 l 925 431 l 897 404 l 897 333 l 949 196 l 1035 90 l 1035 89 l 1140 35 l 1328 32 l 1329 32 l 1329 33 l 1417 83 l 1506 186 l 1507 186 l 1507 188 l 1564 336 l 1594 322 l 1542 175 l 1536 167 l 1444 61 l 1439 56 l 1343 1 l 1331 -1 l 1133 0 l 1121 4 l 1018 61 l 1013 67 l 922 175 l 918 182 l 897 240 l 897 0 l 864 0 l 864 375 l 738 319 l 729 318 l 615 318 l 607 319 l 493 372 l 486 376 l 394 463 l 392 467 l 14 -1 l -11 19 l 375 499 l 365 518 l 343 568 l 343 663 l 376 663 l 376 571 l 400 528 l 551 715 l 513 747 l 428 776 l 343 776 l 264 740 l 200 678 l 176 603 l 176 532 l 142 532 l 142 618 l 171 693 l 242 764 l 329 811 l 439 811 l 532 775 l 572 742 l 871 1111 l 896 1111 l 896 556 l 924 619 l 926 625 l 1007 707 l 981 779 l 979 785 l 979 876 l 982 886 l 1019 976 l 1025 985 l 1086 1051 l 1092 1058 l 1161 1093 l 1174 1097 l 1306 1096 l 1319 1092 l 1379 1053 l 1385 1049 l 1446 981 l 1422 958 l 1364 1024 l 1363 1024 l 1363 1025 l 1304 1061 l 1303 1063 l 1301 1063 l 1176 1064 l 1175 1064 l 1174 1063 l 1111 1031 l 1110 1029 l 1051 965 l 1050 964 l 1050 963 l 1014 875 l 1013 875 l 1013 874 l 1013 872 l 1011 786 l 1011 785 l 1013 783 l 1038 724 l 1094 751 l 1107 754 l 1225 753 l 1225 722 l 1107 724 l 1106 724 l 1050 694 l 1054 685 l 1054 683 l 1056 683 l 1088 643 l 1104 624 l 1106 622 l 1165 588 l 1167 588 l 1168 588 l 1297 585 l 1299 586 l 1351 617 l 1353 617 l 1417 688 l 1442 665 l 1381 596 l 1374 592 l 1313 554 l 1299 550 l 1167 551 l 1154 554 l 1086 593 l 1028 651 l 1019 675 l 954 604 l 954 603 l 897 471 l 897 449 l 917 467 l 943 497 l 974 558 l 1000 540 m 864 418 l 863 1051 l 857 1043 l 596 721 l 622 699 l 665 621 l 668 610 l 668 532 l 633 532 l 633 610 l 596 678 l 575 694 l 417 499 l 424 486 l 508 401 l 510 401 l 622 353 l 724 353 l 844 401 l 846 401 l 864 418 z "},"Ç":{"ha":1164,"x_min":136,"x_max":1107,"o":"m 1007 1146 l 1049 1072 l 1064 960 l 1044 903 l 1107 822 l 1081 801 l 1032 864 l 1006 783 l 931 710 l 924 707 l 801 672 l 679 693 l 685 726 l 803 707 l 915 740 l 974 801 l 1007 896 l 996 910 l 936 989 l 796 1075 l 519 1076 l 382 999 l 254 856 l 175 669 l 172 467 l 247 264 l 374 113 l 499 36 l 782 36 l 751 107 l 693 171 l 631 206 l 550 206 l 550 240 l 629 240 l 639 238 l 713 199 l 718 194 l 783 121 l 814 50 l 922 113 l 1047 256 l 1074 235 l 942 81 l 824 13 l 824 -62 l 822 -71 l 779 -164 l 774 -169 l 710 -237 l 701 -243 l 629 -276 l 619 -278 l 543 -278 l 543 -243 l 621 -243 l 683 -214 l 746 -147 l 788 -57 l 788 0 l 490 0 l 479 3 l 351 83 l 214 250 l 136 458 l 139 676 l 225 879 l 349 1022 l 507 1111 l 800 1111 l 954 1021 l 1021 935 l 1031 963 l 1017 1061 l 979 1128 l 1007 1146 z "},"È":{"ha":878,"x_min":76,"x_max":810,"o":"m 329 1540 l 303 1458 l 306 1368 l 342 1294 l 415 1229 l 500 1196 l 575 1196 l 636 1226 l 651 1194 l 588 1164 l 578 1161 l 497 1161 l 486 1164 l 400 1197 l 393 1201 l 317 1268 l 313 1275 l 274 1353 l 271 1363 l 268 1457 l 269 1463 l 296 1550 l 300 1558 l 349 1624 l 356 1631 l 424 1663 l 439 1632 l 372 1599 l 329 1540 m 222 717 l 196 789 l 194 794 l 194 886 l 197 896 l 235 986 l 240 994 l 301 1061 l 307 1068 l 376 1103 l 389 1107 l 521 1106 l 535 1101 l 594 1063 l 600 1058 l 661 990 l 638 968 l 579 1033 l 578 1033 l 578 1035 l 519 1071 l 518 1072 l 517 1072 l 392 1074 l 390 1074 l 389 1072 l 326 1040 l 325 1039 l 267 975 l 265 974 l 265 972 l 229 885 l 228 885 l 228 883 l 228 882 l 226 796 l 226 794 l 228 793 l 253 733 l 310 761 l 322 764 l 440 763 l 440 732 l 322 733 l 321 733 l 265 704 l 269 694 l 269 693 l 271 693 l 303 653 l 319 633 l 321 632 l 381 597 l 382 597 l 383 597 l 513 594 l 514 596 l 567 626 l 568 626 l 632 697 l 657 675 l 596 606 l 589 601 l 528 564 l 514 560 l 382 561 l 369 564 l 301 603 l 243 661 l 235 685 l 169 614 l 169 613 l 113 481 l 111 349 l 164 206 l 250 100 l 250 99 l 356 44 l 543 42 l 544 42 l 544 43 l 632 93 l 721 196 l 722 196 l 722 197 l 779 346 l 810 332 l 757 185 l 751 176 l 660 71 l 654 65 l 558 11 l 546 8 l 349 10 l 336 14 l 233 71 l 228 76 l 138 185 l 133 192 l 78 339 l 76 349 l 79 483 l 81 493 l 139 629 l 142 635 l 222 717 z "},"É":{"ha":778,"x_min":36,"x_max":725,"o":"m 311 1075 l 224 999 l 188 907 l 188 804 l 188 803 l 219 728 l 269 753 l 282 756 l 400 756 l 400 725 l 282 725 l 281 725 l 233 701 l 283 646 l 342 619 l 471 619 l 526 651 l 590 722 l 615 700 l 554 631 l 486 589 l 472 585 l 338 586 l 325 589 l 256 625 l 203 685 l 201 685 l 129 606 l 72 472 l 71 340 l 124 197 l 210 92 l 315 36 l 504 35 l 614 101 l 689 219 l 689 350 l 725 350 l 725 208 l 719 200 l 642 79 l 636 74 l 518 3 l 506 0 l 308 0 l 296 6 l 183 61 l 174 68 l 97 176 l 93 183 l 38 331 l 36 340 l 39 475 l 40 485 l 99 621 l 101 626 l 185 711 l 189 714 l 151 797 l 150 803 l 150 911 l 153 921 l 189 1011 l 194 1019 l 297 1107 l 310 1111 l 447 1111 l 461 1107 l 551 1044 l 557 1040 l 594 969 l 569 953 l 535 1014 l 444 1075 l 311 1075 m 565 1543 l 522 1601 l 456 1635 l 471 1665 l 539 1633 l 546 1626 l 594 1561 l 599 1553 l 625 1465 l 626 1460 l 624 1365 l 622 1356 l 582 1278 l 578 1271 l 501 1204 l 494 1200 l 404 1165 l 397 1164 l 317 1164 l 307 1167 l 243 1197 l 258 1229 l 319 1199 l 394 1199 l 479 1232 l 553 1297 l 589 1371 l 592 1461 l 565 1543 z "},"Ê":{"ha":761,"x_min":19,"x_max":774,"o":"m 294 1075 l 207 999 l 171 907 l 171 804 l 171 803 l 203 728 l 253 753 l 265 756 l 383 756 l 383 725 l 265 725 l 264 725 l 217 701 l 267 646 l 325 619 l 454 619 l 510 651 l 574 722 l 599 700 l 538 631 l 469 589 l 456 585 l 321 586 l 308 589 l 239 625 l 186 685 l 185 685 l 113 606 l 56 472 l 54 340 l 107 197 l 193 92 l 299 36 l 488 35 l 597 101 l 672 219 l 672 350 l 708 350 l 708 208 l 703 200 l 625 79 l 619 74 l 501 3 l 489 0 l 292 0 l 279 6 l 167 61 l 157 68 l 81 176 l 76 183 l 21 331 l 19 340 l 22 475 l 24 485 l 82 621 l 85 626 l 168 711 l 172 714 l 135 797 l 133 803 l 133 911 l 136 921 l 172 1011 l 178 1019 l 281 1107 l 293 1111 l 431 1111 l 444 1107 l 535 1044 l 540 1040 l 578 969 l 553 953 l 518 1014 l 428 1075 l 294 1075 m 478 1386 l 469 1347 l 481 1263 l 522 1299 l 557 1371 l 560 1463 l 533 1544 l 490 1601 l 424 1636 l 440 1667 l 507 1635 l 514 1628 l 563 1563 l 567 1554 l 593 1467 l 594 1461 l 592 1367 l 590 1357 l 551 1279 l 546 1272 l 497 1229 l 522 1181 l 586 1131 l 681 1100 l 774 1100 l 774 1067 l 681 1067 l 672 1067 l 575 1096 l 568 1100 l 499 1153 l 493 1161 l 471 1206 l 463 1201 l 372 1167 l 365 1165 l 285 1165 l 275 1168 l 211 1199 l 226 1231 l 288 1200 l 363 1200 l 447 1233 l 454 1239 l 450 1246 l 449 1251 l 436 1342 l 436 1350 l 446 1393 l 478 1386 z "},"Ë":{"ha":778,"x_min":39,"x_max":725,"o":"m 129 606 m 311 1075 l 224 999 l 188 907 l 188 804 l 188 803 l 219 728 l 269 753 l 282 756 l 400 756 l 400 725 l 281 725 l 233 701 l 283 646 l 342 619 l 471 619 l 526 651 l 590 722 l 615 700 l 554 631 l 486 589 l 472 586 l 338 586 l 325 589 l 256 625 l 201 685 l 129 606 l 72 472 l 72 340 l 124 197 l 210 92 l 315 36 l 504 36 l 614 101 l 689 219 l 689 350 l 725 350 l 725 208 l 719 200 l 642 79 l 636 74 l 518 3 l 506 0 l 308 0 l 296 6 l 183 61 l 174 68 l 97 176 l 93 183 l 39 331 l 39 340 l 39 475 l 39 485 l 99 621 l 101 626 l 185 711 l 188 713 l 151 797 l 150 803 l 150 911 l 153 921 l 189 1011 l 194 1019 l 297 1107 l 310 1111 l 447 1111 l 461 1107 l 551 1044 l 557 1040 l 594 969 l 569 953 l 535 1014 l 444 1075 l 311 1075 m 325 1164 l 290 1164 l 290 1286 l 325 1286 l 325 1164 m 469 1164 l 435 1164 l 435 1286 l 469 1286 l 469 1164 z "},"Ì":{"ha":972,"x_min":15,"x_max":1103,"o":"m 913 1111 l 943 1094 l 860 914 l 950 936 l 1025 983 l 1074 1068 l 1103 1050 l 1053 961 l 964 903 l 840 875 l 474 88 l 469 79 l 407 21 l 307 -8 l 186 -8 l 85 42 l 15 115 l 43 140 l 104 74 l 194 31 l 303 29 l 383 53 l 444 113 l 454 126 l 804 878 l 746 882 l 647 940 l 596 1015 l 524 1063 l 444 1083 l 364 1072 l 306 1033 l 261 975 l 242 906 l 242 836 l 204 836 l 204 906 l 228 992 l 285 1061 l 351 1103 l 444 1115 l 533 1096 l 621 1040 l 672 965 l 756 917 l 819 913 l 913 1111 m 558 1540 l 533 1458 l 533 1368 l 571 1294 l 644 1229 l 729 1196 l 804 1196 l 865 1226 l 881 1194 l 817 1164 l 807 1161 l 726 1161 l 715 1164 l 629 1197 l 622 1201 l 546 1268 l 542 1275 l 503 1353 l 499 1363 l 499 1457 l 500 1469 l 525 1550 l 529 1558 l 578 1624 l 585 1631 l 653 1663 l 668 1632 l 601 1599 l 558 1540 z "},"Í":{"ha":972,"x_min":15,"x_max":1103,"o":"m 913 1111 l 943 1094 l 860 914 l 950 936 l 1025 983 l 1074 1068 l 1103 1050 l 1053 961 l 964 903 l 840 875 l 474 88 l 469 79 l 407 21 l 307 -8 l 186 -8 l 85 42 l 15 115 l 43 140 l 104 74 l 194 31 l 303 29 l 383 53 l 444 113 l 454 126 l 804 878 l 746 882 l 647 940 l 596 1015 l 524 1063 l 444 1083 l 364 1072 l 306 1033 l 261 975 l 242 906 l 242 836 l 204 836 l 204 906 l 228 992 l 285 1061 l 351 1103 l 444 1115 l 533 1096 l 621 1040 l 672 965 l 756 917 l 819 913 l 913 1111 m 893 1542 l 850 1600 l 783 1633 l 799 1664 l 867 1632 l 874 1625 l 922 1560 l 926 1551 l 951 1464 l 953 1458 l 951 1364 l 950 1354 l 910 1276 l 906 1269 l 829 1203 l 822 1199 l 732 1164 l 725 1163 l 644 1163 l 635 1165 l 571 1196 l 586 1228 l 647 1197 l 722 1197 l 807 1231 l 881 1296 l 917 1369 l 919 1460 l 893 1542 z "},"Î":{"ha":972,"x_min":15,"x_max":1125,"o":"m 913 1111 l 943 1094 l 860 914 l 950 936 l 1025 983 l 1074 1068 l 1103 1050 l 1053 961 l 964 903 l 840 875 l 474 88 l 469 79 l 407 21 l 307 -8 l 186 -8 l 85 42 l 15 115 l 43 140 l 104 74 l 194 31 l 303 29 l 383 53 l 444 113 l 454 126 l 804 878 l 746 882 l 647 940 l 596 1015 l 524 1063 l 444 1083 l 364 1072 l 306 1033 l 261 975 l 242 906 l 242 836 l 204 836 l 204 906 l 228 992 l 285 1061 l 351 1103 l 444 1115 l 533 1096 l 621 1040 l 672 965 l 756 917 l 819 913 l 913 1111 m 829 1483 l 821 1444 l 833 1361 l 874 1396 l 910 1469 l 915 1568 l 889 1650 l 922 1661 l 949 1572 l 950 1567 l 944 1464 l 942 1454 l 903 1376 l 897 1369 l 849 1326 l 874 1278 l 938 1228 l 1032 1197 l 1125 1197 l 1125 1164 l 1032 1165 l 1024 1165 l 926 1193 l 919 1197 l 851 1251 l 844 1258 l 822 1303 l 815 1299 l 725 1264 l 718 1263 l 636 1264 l 628 1265 l 563 1297 l 579 1328 l 639 1299 l 714 1299 l 799 1331 l 806 1336 l 801 1343 l 800 1349 l 788 1440 l 788 1447 l 797 1490 l 829 1483 z "},"Ï":{"ha":972,"x_min":15,"x_max":1103,"o":"m 913 1111 l 943 1094 l 860 914 l 950 936 l 1025 983 l 1074 1068 l 1103 1050 l 1053 961 l 964 903 l 840 875 l 474 88 l 469 79 l 407 21 l 307 -8 l 186 -8 l 85 42 l 15 115 l 43 140 l 104 74 l 194 31 l 303 29 l 383 53 l 444 113 l 454 126 l 804 878 l 746 882 l 647 940 l 596 1015 l 524 1063 l 444 1083 l 364 1072 l 306 1033 l 261 975 l 242 906 l 242 836 l 204 836 l 204 906 l 228 992 l 285 1061 l 351 1103 l 444 1115 l 533 1096 l 621 1040 l 672 965 l 756 917 l 819 913 l 913 1111 m 688 1164 l 653 1164 l 653 1286 l 688 1286 l 688 1164 m 832 1164 l 797 1164 l 797 1286 l 832 1286 l 832 1164 z "},"Ò":{"ha":1288,"x_min":56,"x_max":1131,"o":"m 426 1542 l 400 1458 l 403 1368 l 439 1296 l 513 1231 l 596 1197 l 672 1197 l 733 1226 l 749 1196 l 685 1164 l 675 1163 l 593 1163 l 586 1163 l 497 1199 l 490 1201 l 414 1269 l 410 1275 l 371 1353 l 368 1363 l 365 1457 l 367 1463 l 393 1551 l 397 1558 l 446 1622 l 453 1628 l 521 1661 l 536 1631 l 469 1596 l 426 1542 m 56 668 l 147 876 l 276 1024 l 283 1028 l 431 1107 l 443 1110 l 728 1111 l 739 1107 l 878 1029 l 882 1024 l 989 890 l 1024 824 l 1075 875 l 1094 928 l 1094 994 l 1131 994 l 1131 926 l 1128 915 l 1108 861 l 1104 856 l 1039 789 l 1094 672 l 1096 663 l 1096 469 l 1094 463 l 1019 250 l 1015 243 l 883 88 l 876 83 l 740 1 l 729 -1 l 443 -1 l 433 1 l 283 82 l 275 88 l 146 242 l 143 249 l 63 461 l 56 668 m 624 915 l 622 925 l 622 996 l 658 996 l 658 926 l 688 861 l 753 801 l 831 768 l 918 768 l 994 803 l 943 893 l 854 1003 l 719 1079 l 718 1079 l 451 1079 l 450 1079 l 303 1001 l 174 856 l 96 661 l 96 472 l 175 264 l 303 114 l 446 36 l 725 36 l 854 111 l 985 264 l 1060 475 l 1060 663 l 1010 769 l 931 736 l 922 735 l 828 735 l 819 736 l 735 772 l 657 846 l 624 915 z "},"Ó":{"ha":1140,"x_min":56,"x_max":1131,"o":"m 56 668 l 147 876 l 276 1024 l 283 1028 l 431 1107 l 443 1110 l 728 1111 l 739 1107 l 878 1029 l 882 1024 l 989 890 l 1024 824 l 1075 875 l 1094 928 l 1094 994 l 1131 994 l 1131 926 l 1128 915 l 1108 861 l 1104 856 l 1039 789 l 1094 672 l 1096 663 l 1096 469 l 1094 463 l 1019 250 l 1015 243 l 883 88 l 876 83 l 740 1 l 729 -1 l 443 -1 l 433 1 l 283 82 l 275 88 l 146 242 l 143 249 l 63 461 l 56 668 m 624 915 l 622 925 l 622 996 l 658 996 l 658 926 l 688 861 l 753 801 l 831 768 l 918 768 l 994 803 l 943 893 l 854 1003 l 719 1079 l 718 1079 l 451 1079 l 450 1079 l 303 1001 l 174 856 l 96 661 l 96 472 l 175 264 l 303 114 l 446 36 l 725 36 l 854 111 l 985 264 l 1060 475 l 1060 663 l 1010 769 l 931 736 l 922 735 l 828 735 l 819 736 l 735 772 l 657 846 l 624 915 m 796 1543 l 754 1597 l 688 1631 l 703 1661 l 771 1629 l 778 1622 l 825 1561 l 829 1553 l 856 1465 l 857 1460 l 854 1365 l 853 1356 l 813 1278 l 808 1271 l 732 1204 l 725 1200 l 635 1165 l 628 1164 l 547 1164 l 538 1167 l 474 1197 l 489 1229 l 550 1199 l 625 1199 l 710 1232 l 783 1297 l 819 1371 l 822 1461 l 796 1543 z "},"Ô":{"ha":1140,"x_min":56,"x_max":1131,"o":"m 56 668 l 147 876 l 276 1024 l 283 1028 l 431 1107 l 443 1110 l 694 1111 l 647 1182 l 642 1197 l 554 1164 l 547 1163 l 465 1163 l 457 1165 l 392 1196 l 408 1226 l 468 1197 l 544 1197 l 628 1231 l 629 1232 l 603 1310 l 603 1317 l 603 1392 l 636 1392 l 636 1314 l 657 1256 l 703 1296 l 739 1368 l 742 1458 l 715 1542 l 672 1599 l 604 1633 l 621 1664 l 688 1631 l 694 1625 l 744 1558 l 747 1551 l 775 1464 l 776 1458 l 774 1364 l 771 1354 l 732 1276 l 728 1269 l 671 1219 l 678 1199 l 739 1107 l 878 1031 l 990 1029 l 990 997 l 903 997 l 989 890 l 1024 824 l 1075 875 l 1094 928 l 1094 994 l 1131 994 l 1131 926 l 1128 915 l 1108 861 l 1104 856 l 1039 789 l 1094 672 l 1096 663 l 1096 469 l 1094 463 l 1019 250 l 1015 243 l 883 88 l 876 83 l 740 1 l 729 -1 l 443 -1 l 433 1 l 283 82 l 275 88 l 146 242 l 143 249 l 63 461 l 56 668 m 624 915 l 622 925 l 622 996 l 658 996 l 658 926 l 688 861 l 753 801 l 831 768 l 918 768 l 994 803 l 943 893 l 854 1003 l 721 1078 l 719 1079 l 718 1079 l 451 1079 l 450 1079 l 303 1001 l 174 856 l 96 661 l 96 472 l 175 264 l 303 114 l 446 36 l 725 36 l 854 111 l 985 264 l 1060 475 l 1060 663 l 1010 769 l 931 736 l 922 735 l 828 735 l 819 736 l 735 772 l 657 846 l 624 915 z "},"Õ":{"ha":1140,"x_min":56,"x_max":1131,"o":"m 56 668 l 147 876 l 276 1024 l 283 1028 l 431 1107 l 443 1110 l 728 1111 l 739 1107 l 878 1029 l 882 1024 l 989 890 l 1024 824 l 1075 875 l 1094 928 l 1094 994 l 1131 994 l 1131 926 l 1128 915 l 1108 861 l 1104 856 l 1039 789 l 1094 672 l 1096 663 l 1096 469 l 1094 463 l 1019 250 l 1015 243 l 883 88 l 876 83 l 740 1 l 729 -1 l 443 -1 l 433 1 l 283 82 l 275 88 l 146 242 l 143 249 l 63 461 l 56 668 m 624 915 l 622 925 l 622 996 l 658 996 l 658 926 l 688 861 l 753 801 l 831 768 l 918 768 l 994 803 l 943 893 l 854 1003 l 719 1079 l 718 1079 l 451 1079 l 450 1079 l 303 1001 l 174 856 l 96 661 l 96 472 l 175 264 l 303 114 l 446 36 l 725 36 l 854 111 l 985 264 l 1060 475 l 1060 663 l 1010 769 l 931 736 l 922 735 l 828 735 l 819 736 l 735 772 l 657 846 l 624 915 z "},"Ö":{"ha":1140,"x_min":56,"x_max":1131,"o":"m 56 668 l 147 876 l 276 1024 l 283 1028 l 431 1107 l 443 1110 l 728 1111 l 739 1107 l 878 1029 l 882 1024 l 989 890 l 1024 824 l 1075 875 l 1094 928 l 1094 994 l 1131 994 l 1131 926 l 1128 915 l 1108 861 l 1104 856 l 1039 789 l 1094 672 l 1096 663 l 1096 469 l 1094 463 l 1019 250 l 1015 243 l 883 88 l 876 83 l 740 1 l 729 -1 l 443 -1 l 433 1 l 283 82 l 275 88 l 146 242 l 143 249 l 63 461 l 56 668 m 624 915 l 622 925 l 622 996 l 658 996 l 658 926 l 688 861 l 753 801 l 831 768 l 918 768 l 994 803 l 943 893 l 854 1003 l 719 1079 l 718 1079 l 451 1079 l 450 1079 l 303 1001 l 174 856 l 96 661 l 96 472 l 175 264 l 303 114 l 446 36 l 725 36 l 854 111 l 985 264 l 1060 475 l 1060 663 l 1010 769 l 931 736 l 922 735 l 828 735 l 819 736 l 735 772 l 657 846 l 624 915 m 533 1164 l 499 1164 l 499 1286 l 533 1286 l 533 1164 m 678 1164 l 643 1164 l 643 1286 l 678 1286 l 678 1164 z "},"×":{"ha":658,"x_min":39,"x_max":617,"o":"m 332 418 l 576 701 l 604 674 l 357 388 l 617 81 l 588 54 l 332 358 l 65 50 l 39 76 l 307 388 l 63 678 l 92 703 l 332 418 z "},"Ø":{"ha":1207,"x_min":78,"x_max":1188,"o":"m 1160 1143 l 1188 1115 l 999 907 l 1011 892 l 1061 790 l 1117 674 l 1118 664 l 1118 471 l 1117 464 l 1042 251 l 1038 244 l 906 89 l 899 85 l 763 3 l 751 0 l 465 0 l 456 3 l 306 83 l 297 89 l 279 111 l 126 -57 l 94 -31 l 251 143 l 168 243 l 165 250 l 85 463 l 78 669 l 169 878 l 299 1025 l 306 1029 l 453 1108 l 465 1111 l 750 1113 l 761 1108 l 900 1031 l 904 1025 l 974 939 l 1160 1143 m 304 140 l 325 115 l 468 35 l 747 35 l 876 113 l 1007 265 l 1082 476 l 1082 664 l 1032 771 l 974 879 l 304 140 m 278 171 l 950 913 l 876 1004 l 742 1079 l 740 1079 l 474 1079 l 472 1079 l 325 1003 l 196 857 l 118 663 l 118 474 l 197 265 l 278 171 z "},"Ù":{"ha":1460,"x_min":-56,"x_max":1471,"o":"m -22 0 l -56 21 l 214 515 l 515 1088 l 529 1111 l 556 1090 l 232 475 l 232 342 l 286 201 l 357 97 l 474 36 l 642 36 l 724 86 l 725 88 l 799 169 l 819 213 l 792 329 l 790 339 l 799 474 l 801 483 l 857 590 l 888 575 l 888 574 l 833 471 l 825 339 l 843 257 l 1271 1111 l 1303 1099 l 858 210 l 940 94 l 1057 35 l 1206 35 l 1313 86 l 1383 188 l 1439 336 l 1471 322 l 1418 175 l 1413 167 l 1340 64 l 1333 58 l 1218 0 l 1050 0 l 1035 4 l 925 61 l 919 67 l 839 171 l 825 144 l 746 58 l 654 4 l 643 1 l 468 1 l 456 4 l 335 67 l 329 74 l 256 178 l 253 186 l 197 333 l 197 342 l 197 411 l -22 0 m 681 1542 l 656 1458 l 656 1368 l 693 1296 l 767 1231 l 850 1197 l 926 1197 l 988 1226 l 1003 1196 l 939 1164 l 929 1163 l 847 1163 l 840 1163 l 751 1199 l 744 1201 l 668 1269 l 664 1275 l 625 1353 l 619 1363 l 619 1457 l 621 1472 l 647 1551 l 651 1558 l 700 1622 l 707 1628 l 775 1661 l 790 1631 l 724 1596 l 681 1542 z "},"Ú":{"ha":1460,"x_min":-56,"x_max":1471,"o":"m -22 0 l -56 21 l 214 515 l 515 1088 l 529 1111 l 556 1090 l 232 475 l 232 342 l 286 201 l 357 97 l 474 36 l 642 36 l 724 86 l 725 88 l 799 169 l 819 213 l 792 329 l 790 339 l 799 474 l 801 483 l 857 590 l 888 575 l 888 574 l 833 471 l 825 339 l 843 257 l 1271 1111 l 1303 1099 l 858 210 l 940 94 l 1057 35 l 1206 35 l 1313 86 l 1383 188 l 1439 336 l 1471 322 l 1418 175 l 1413 167 l 1340 64 l 1333 58 l 1218 0 l 1050 0 l 1035 4 l 925 61 l 919 67 l 839 171 l 825 144 l 746 58 l 654 4 l 643 1 l 468 1 l 456 4 l 335 67 l 329 74 l 256 178 l 253 186 l 197 333 l 196 342 l 197 410 l -22 0 m 1088 1543 l 1046 1596 l 979 1631 l 994 1661 l 1063 1629 l 1068 1622 l 1117 1560 l 1121 1553 l 1147 1465 l 1149 1460 l 1146 1365 l 1143 1356 l 1104 1278 l 1100 1271 l 1024 1204 l 1017 1200 l 926 1165 l 919 1164 l 839 1164 l 829 1167 l 764 1197 l 781 1228 l 842 1199 l 917 1199 l 1001 1232 l 1075 1297 l 1111 1369 l 1114 1460 l 1088 1543 z "},"Û":{"ha":1460,"x_min":-56,"x_max":1471,"o":"m -22 0 l -56 21 l 214 515 l 515 1088 l 529 1111 l 556 1090 l 232 475 l 232 342 l 286 201 l 357 97 l 474 36 l 642 36 l 724 86 l 725 88 l 799 169 l 819 213 l 792 329 l 790 339 l 799 474 l 801 483 l 857 590 l 888 575 l 888 574 l 833 471 l 825 339 l 843 257 l 1271 1111 l 1303 1099 l 858 210 l 940 94 l 1057 35 l 1206 35 l 1313 86 l 1383 188 l 1439 336 l 1471 322 l 1418 175 l 1413 167 l 1340 64 l 1333 58 l 1218 0 l 1050 0 l 1035 4 l 925 61 l 919 67 l 839 171 l 825 144 l 746 58 l 654 4 l 643 1 l 468 1 l 456 4 l 335 67 l 329 74 l 256 178 l 253 186 l 197 333 l 196 342 l 197 410 l -22 0 m 938 1375 l 924 1304 l 929 1265 l 964 1296 l 1000 1369 l 1003 1460 l 976 1542 l 933 1600 l 867 1633 l 882 1664 l 950 1632 l 957 1625 l 1006 1560 l 1010 1551 l 1036 1464 l 1038 1458 l 1035 1364 l 1033 1354 l 993 1276 l 989 1269 l 935 1222 l 935 1218 l 976 1138 l 1042 1085 l 1122 1067 l 1113 1032 l 1029 1053 l 1022 1057 l 953 1110 l 947 1118 l 906 1199 l 815 1164 l 808 1163 l 728 1163 l 718 1165 l 654 1196 l 669 1228 l 731 1197 l 806 1197 l 890 1231 l 899 1238 l 889 1299 l 889 1307 l 906 1382 l 938 1375 z "},"Ü":{"ha":1460,"x_min":-56,"x_max":1471,"o":"m -22 0 l -56 21 l 214 515 l 515 1088 l 529 1111 l 556 1090 l 232 475 l 232 342 l 286 201 l 357 97 l 474 36 l 642 36 l 724 86 l 725 88 l 799 169 l 819 213 l 792 329 l 790 339 l 799 474 l 801 483 l 857 590 l 888 575 l 888 574 l 833 471 l 825 339 l 843 257 l 1271 1111 l 1303 1099 l 858 210 l 940 94 l 1057 35 l 1206 35 l 1313 86 l 1383 188 l 1439 336 l 1471 322 l 1418 175 l 1413 167 l 1340 64 l 1333 58 l 1218 0 l 1050 0 l 1035 4 l 925 61 l 919 67 l 839 171 l 825 144 l 746 58 l 654 4 l 643 1 l 468 1 l 456 4 l 335 67 l 329 74 l 256 178 l 253 186 l 197 333 l 196 342 l 197 410 l -22 0 m 801 1164 l 767 1164 l 767 1286 l 801 1286 l 801 1164 m 1003 1164 l 968 1164 l 968 1286 l 1003 1286 l 1003 1164 z "},"Ý":{"ha":1035,"x_min":40,"x_max":1364,"o":"m 558 917 l 558 992 l 607 1083 l 693 1169 l 781 1210 l 897 1210 l 1003 1161 l 1092 1079 l 1129 997 l 1129 922 l 1163 922 l 1163 1008 l 1111 1111 l 1019 1193 l 914 1243 l 768 1243 l 661 1193 l 575 1107 l 525 1011 l 525 917 l 558 917 m 619 1543 l 578 1597 l 511 1631 l 526 1661 l 594 1629 l 600 1622 l 649 1561 l 653 1554 l 679 1465 l 681 1460 l 678 1365 l 675 1356 l 636 1278 l 632 1271 l 556 1204 l 549 1200 l 458 1165 l 451 1164 l 371 1165 l 361 1167 l 296 1199 l 313 1229 l 374 1200 l 449 1200 l 533 1232 l 607 1297 l 643 1371 l 646 1461 l 619 1543 m 396 406 l 126 0 l 174 0 l 767 901 l 808 819 l 886 733 l 999 683 l 1140 683 l 1253 731 l 1333 797 l 1364 917 l 1332 929 l 1307 829 l 1233 761 l 1129 719 l 1008 719 l 919 757 l 840 840 l 792 939 l 892 1090 l 863 1111 l 789 1000 l 789 1111 l 753 1111 l 753 946 l 419 442 l 71 1111 l 40 1092 l 396 406 z "},"ß":{"ha":788,"x_min":50,"x_max":736,"o":"m 736 308 l 736 197 l 735 189 q 710 128 726 169 q 685 67 693 88 l 621 -21 l 617 -26 l 517 -83 l 506 -85 l 404 -85 l 404 -51 l 501 -51 q 549 -23 517 -42 q 599 4 582 -4 l 600 4 l 657 86 l 703 204 l 703 306 l 665 426 l 665 428 l 596 521 l 574 535 l 542 492 l 532 485 l 458 425 l 450 421 l 360 401 l 353 433 l 442 454 l 515 515 l 543 553 l 476 592 l 371 611 l 375 640 l 493 621 l 560 579 l 590 657 l 601 732 l 578 839 l 578 842 l 529 922 l 528 924 l 453 983 l 451 983 l 367 1008 l 263 996 l 178 960 l 178 0 l 144 0 l 144 944 l 72 868 l 50 899 l 129 978 l 144 985 l 144 1058 l 178 1058 l 178 999 l 253 1031 l 365 1042 l 467 1015 l 550 950 l 554 946 l 608 854 l 614 846 l 638 738 l 636 725 l 622 644 l 590 561 l 619 543 l 690 447 l 736 308 z "},"à":{"ha":757,"x_min":82,"x_max":633,"o":"m 117 169 l 83 288 l 82 293 l 82 415 l 83 421 l 122 546 l 125 553 l 193 646 l 197 650 l 268 703 l 281 707 l 428 707 l 440 703 l 517 650 l 521 646 l 588 553 l 590 547 l 599 522 l 599 704 l 633 704 l 633 0 l 599 0 l 599 179 l 590 153 l 588 146 l 521 50 l 515 46 l 439 -6 l 428 -10 l 281 -10 l 268 -6 l 197 46 l 193 50 l 135 133 l 117 169 m 142 203 l 156 163 l 157 161 l 218 72 l 285 24 l 425 24 l 496 72 l 560 165 l 599 293 l 599 414 l 558 535 l 493 624 l 424 674 l 285 674 l 219 625 l 153 533 l 117 415 l 117 293 l 142 203 m 372 813 l 242 1096 l 274 1113 l 401 828 l 372 813 z "},"á":{"ha":757,"x_min":81,"x_max":632,"o":"m 115 169 l 82 288 l 81 293 l 81 415 l 82 421 l 121 546 l 124 553 l 192 646 l 196 650 l 267 703 l 279 707 l 426 707 l 439 703 l 515 650 l 519 646 l 586 553 l 589 547 l 597 522 l 597 704 l 632 704 l 632 0 l 597 0 l 597 179 l 589 153 l 586 146 l 519 50 l 514 46 l 438 -6 l 426 -10 l 279 -10 l 267 -6 l 196 46 l 192 50 l 133 133 l 115 169 m 140 203 l 154 163 l 156 161 l 217 72 l 283 24 l 424 24 l 494 72 l 558 165 l 597 293 l 597 414 l 557 535 l 492 624 l 422 674 l 283 674 l 218 625 l 151 533 l 115 415 l 115 293 l 140 203 m 326 811 l 293 829 l 422 1113 l 457 1094 l 326 811 z "},"â":{"ha":760,"x_min":83,"x_max":635,"o":"m 118 169 l 85 288 l 83 293 l 83 415 l 85 421 l 124 546 l 126 553 l 194 646 l 199 650 l 269 703 l 282 707 l 429 707 l 442 703 l 518 650 l 522 646 l 589 553 l 592 547 l 600 522 l 600 704 l 635 704 l 635 0 l 600 0 l 600 179 l 592 153 l 589 146 l 522 50 l 517 46 l 440 -6 l 429 -10 l 282 -10 l 269 -6 l 199 46 l 194 50 l 136 133 l 118 169 m 143 203 l 157 163 l 158 161 l 219 72 l 286 24 l 426 24 l 497 72 l 561 165 l 600 293 l 600 414 l 560 535 l 494 624 l 425 674 l 286 674 l 221 625 l 154 533 l 118 415 l 118 293 l 143 203 m 243 810 l 210 828 l 340 1111 l 369 1111 l 497 826 l 468 811 l 356 1054 l 243 810 z "},"ã":{"ha":760,"x_min":68,"x_max":713,"o":"m 118 169 l 85 288 l 83 293 l 83 415 l 85 421 l 124 546 l 126 553 l 194 646 l 199 650 l 269 703 l 282 707 l 429 707 l 442 703 l 518 650 l 522 646 l 589 553 l 592 547 l 600 522 l 600 704 l 635 704 l 635 0 l 600 0 l 600 179 l 592 153 l 589 146 l 522 50 l 517 46 l 440 -6 l 429 -10 l 282 -10 l 269 -6 l 199 46 l 194 50 l 136 133 l 118 169 m 143 203 l 157 163 l 158 161 l 219 72 l 286 24 l 426 24 l 497 72 l 561 165 l 600 293 l 600 414 l 560 535 l 494 624 l 425 674 l 286 674 l 221 625 l 154 533 l 118 415 l 118 293 l 143 203 m 96 958 l 115 924 l 181 867 l 267 832 l 347 835 l 438 876 l 482 917 l 504 892 l 458 851 l 451 846 l 363 801 l 354 800 l 265 797 l 256 799 l 168 835 l 164 838 l 93 897 l 88 903 l 68 943 l 96 958 m 296 904 l 264 915 l 276 957 l 281 964 l 339 1036 l 343 1040 l 422 1092 l 432 1094 l 519 1108 l 526 1108 l 624 1082 l 631 1078 l 713 1031 l 696 1001 l 615 1049 l 518 1072 l 439 1061 l 361 1011 l 308 943 l 296 904 z "},"ä":{"ha":760,"x_min":83,"x_max":635,"o":"m 118 169 l 85 288 l 83 293 l 83 415 l 85 421 l 124 546 l 126 553 l 194 646 l 199 650 l 269 703 l 282 707 l 429 707 l 442 703 l 518 650 l 522 646 l 589 553 l 592 547 l 600 522 l 600 704 l 635 704 l 635 0 l 600 0 l 600 179 l 592 153 l 589 146 l 522 50 l 517 46 l 440 -6 l 429 -10 l 282 -10 l 269 -6 l 199 46 l 194 50 l 136 133 l 118 169 m 143 203 l 157 163 l 158 161 l 219 72 l 286 24 l 426 24 l 497 72 l 561 165 l 600 293 l 600 414 l 560 535 l 494 624 l 425 674 l 286 674 l 221 625 l 154 533 l 118 415 l 118 293 l 143 203 m 303 836 l 268 836 l 268 969 l 303 969 l 303 836 m 447 836 l 413 836 l 413 969 l 447 969 l 447 836 z "},"å":{"ha":760,"x_min":83,"x_max":635,"o":"m 118 169 l 85 288 l 83 293 l 83 415 l 85 421 l 124 546 l 126 553 l 194 646 l 199 650 l 269 703 l 282 707 l 429 707 l 442 703 l 518 650 l 522 646 l 589 553 l 592 547 l 600 522 l 600 704 l 635 704 l 635 0 l 600 0 l 600 179 l 592 153 l 589 146 l 522 50 l 517 46 l 440 -6 l 429 -10 l 282 -10 l 269 -6 l 199 46 l 194 50 l 136 133 l 118 169 m 143 203 l 157 163 l 158 161 l 219 72 l 286 24 l 426 24 l 497 72 l 561 165 l 600 293 l 600 414 l 560 535 l 494 624 l 425 674 l 286 674 l 221 625 l 154 533 l 118 415 l 118 293 l 143 203 m 451 882 l 478 935 l 478 997 l 451 1053 l 393 1089 l 372 1089 l 317 1089 l 258 1051 l 274 1025 l 324 1058 l 385 1058 l 426 1033 l 446 994 l 446 944 l 426 904 l 390 876 l 326 876 l 289 904 l 265 951 l 238 936 l 268 879 l 318 844 l 396 844 l 451 882 z "},"æ":{"ha":1310,"x_min":83,"x_max":1140,"o":"m 118 169 l 85 288 l 83 293 l 83 415 l 85 421 l 124 546 l 126 553 l 194 646 l 199 650 l 269 703 l 282 707 l 429 707 l 442 703 l 518 650 l 522 646 l 589 553 l 592 547 l 600 522 l 600 704 l 635 704 l 635 538 l 640 556 l 643 564 l 711 656 l 715 661 l 786 714 l 799 717 l 946 717 l 958 714 l 1035 661 l 1039 656 l 1106 564 l 1110 556 l 1140 436 l 1140 403 l 635 403 l 635 303 l 671 178 l 736 83 l 803 33 l 943 33 l 1014 83 l 1078 175 l 1094 164 l 1089 169 l 1107 158 l 1042 58 l 1035 53 l 957 3 l 946 0 l 799 0 l 786 6 l 715 56 l 711 61 l 643 156 l 640 164 l 635 183 l 635 0 l 600 0 l 600 179 l 592 153 l 589 146 l 522 54 l 517 50 l 440 4 l 429 0 l 282 0 l 269 4 l 199 50 l 194 54 l 136 133 l 118 169 m 143 203 l 157 163 l 158 161 l 219 76 l 286 33 l 426 33 l 497 76 l 561 165 l 600 293 l 600 303 l 600 414 l 560 535 l 494 624 l 425 674 l 286 674 l 221 625 l 154 533 l 118 415 l 118 293 l 143 203 m 736 633 l 671 544 l 638 436 l 1101 436 l 1075 547 l 1010 636 l 942 683 l 803 683 l 736 633 z "},"ç":{"ha":593,"x_min":21,"x_max":526,"o":"m 21 289 l 21 411 l 57 546 l 60 553 l 129 646 l 204 706 l 217 706 l 363 706 l 374 703 l 451 650 l 457 646 l 526 549 l 499 529 l 428 628 l 358 674 l 222 674 l 157 625 l 92 532 l 56 413 l 56 289 l 92 160 l 158 67 l 221 22 l 358 22 l 429 68 l 499 168 l 526 149 l 457 49 l 375 -7 l 364 -11 l 314 -11 l 215 -200 l 188 -183 l 274 -11 l 217 -11 l 204 -7 l 136 40 l 63 143 l 33 238 l 21 289 z "},"è":{"ha":690,"x_min":83,"x_max":624,"o":"m 219 629 l 154 539 l 121 432 l 585 432 l 558 542 l 493 632 l 425 679 l 286 679 l 219 629 m 522 651 l 589 558 l 593 550 l 624 432 l 624 397 l 118 397 l 118 299 l 154 174 l 154 172 l 219 78 l 286 29 l 426 29 l 497 78 l 561 171 l 578 160 l 572 164 l 590 153 l 525 54 l 518 47 l 440 -1 l 429 -4 l 282 -4 l 269 0 l 199 51 l 194 56 l 126 151 l 124 158 l 85 293 l 83 299 l 83 421 l 85 426 l 124 551 l 126 558 l 194 651 l 199 656 l 269 708 l 282 713 l 429 713 l 442 708 l 518 656 l 522 651 m 382 813 l 251 1096 l 283 1113 l 413 829 l 382 813 z "},"é":{"ha":686,"x_min":83,"x_max":624,"o":"m 219 629 l 154 539 l 121 432 l 585 432 l 558 542 l 493 632 l 425 679 l 286 679 l 219 629 m 522 651 l 589 558 l 593 550 l 624 432 l 624 397 l 118 397 l 118 299 l 154 174 l 154 172 l 219 78 l 286 29 l 426 29 l 497 78 l 561 171 l 578 160 l 572 164 l 590 153 l 525 54 l 518 47 l 440 -1 l 429 -4 l 282 -4 l 269 0 l 199 51 l 194 56 l 126 151 l 124 158 l 85 293 l 83 299 l 83 421 l 85 426 l 124 551 l 126 558 l 194 651 l 199 656 l 269 708 l 282 713 l 429 713 l 442 708 l 518 656 l 522 651 m 326 811 l 293 829 l 422 1113 l 457 1094 l 326 811 z "},"ê":{"ha":690,"x_min":83,"x_max":624,"o":"m 219 629 l 154 539 l 121 432 l 585 432 l 558 542 l 493 632 l 425 679 l 286 679 l 219 629 m 522 651 l 589 558 l 593 550 l 624 432 l 624 397 l 118 397 l 118 299 l 154 174 l 154 172 l 219 78 l 286 29 l 426 29 l 497 78 l 561 171 l 578 160 l 572 164 l 590 153 l 525 54 l 518 47 l 440 -1 l 429 -4 l 282 -4 l 269 0 l 199 51 l 194 56 l 126 151 l 124 158 l 85 293 l 83 299 l 83 421 l 85 426 l 124 551 l 126 558 l 194 651 l 199 656 l 269 708 l 282 713 l 429 713 l 442 708 l 518 656 l 522 651 m 243 810 l 210 828 l 340 1111 l 369 1111 l 497 826 l 468 811 l 356 1054 l 243 810 z "},"ë":{"ha":690,"x_min":83,"x_max":624,"o":"m 219 629 l 154 539 l 121 432 l 585 432 l 558 542 l 493 632 l 425 679 l 286 679 l 219 629 m 522 651 l 589 558 l 593 550 l 624 432 l 624 397 l 118 397 l 118 299 l 154 174 l 154 172 l 219 78 l 286 29 l 426 29 l 497 78 l 561 171 l 578 160 l 572 164 l 590 153 l 525 54 l 518 47 l 440 -1 l 429 -4 l 282 -4 l 269 0 l 199 51 l 194 56 l 126 151 l 124 158 l 85 293 l 83 299 l 83 421 l 85 426 l 124 551 l 126 558 l 194 651 l 199 656 l 269 708 l 282 713 l 429 713 l 442 708 l 518 656 l 522 651 m 303 836 l 268 836 l 268 969 l 303 969 l 303 836 m 447 836 l 413 836 l 413 969 l 447 969 l 447 836 z "},"ì":{"ha":424,"x_min":81,"x_max":249,"o":"m 249 708 l 249 689 l 249 374 l 249 0 l 215 0 l 215 375 l 215 672 l 81 672 l 81 708 l 249 708 m 219 811 l 89 1094 l 121 1111 l 249 826 l 219 811 z "},"í":{"ha":424,"x_min":81,"x_max":281,"o":"m 250 708 l 249 689 l 249 374 l 249 0 l 215 0 l 215 375 l 215 672 l 81 672 l 81 708 l 250 708 m 150 811 l 117 829 l 246 1113 l 281 1094 l 150 811 z "},"î":{"ha":424,"x_min":81,"x_max":257,"o":"m 250 708 l 249 689 l 249 374 l 249 0 l 215 0 l 215 375 l 215 672 l 81 672 l 81 708 l 250 708 m 257 839 l 222 839 l 222 969 l 257 969 l 257 839 z "},"ï":{"ha":424,"x_min":81,"x_max":254,"o":"m 250 708 l 249 689 l 249 374 l 249 0 l 215 0 l 215 375 l 215 672 l 81 672 l 81 708 l 250 708 m 115 836 l 81 836 l 81 969 l 115 969 l 115 836 m 254 836 l 219 836 l 219 969 l 254 969 l 254 836 z "},"ñ":{"ha":729,"x_min":14,"x_max":714,"o":"m 43 968 l 63 933 l 128 876 l 214 842 l 294 846 l 385 886 l 429 926 l 451 901 l 406 861 l 399 857 l 308 813 l 301 810 l 213 807 l 203 808 l 115 844 l 110 847 l 40 907 l 35 914 l 14 953 l 43 968 m 297 917 l 267 926 l 279 968 l 283 975 l 342 1047 l 346 1051 l 425 1103 l 433 1107 l 521 1119 l 529 1119 l 626 1093 l 633 1089 l 714 1042 l 697 1013 l 618 1061 l 521 1085 l 442 1072 l 364 1022 l 310 954 l 297 917 m 593 592 l 597 586 l 629 510 l 631 501 l 631 0 l 596 0 l 596 500 l 564 574 l 510 635 l 442 672 l 332 672 l 258 635 l 200 568 l 174 531 l 174 0 l 139 0 l 139 446 l 139 453 l 139 481 l 51 354 l 19 372 l 139 544 l 139 706 l 174 706 l 174 594 l 233 658 l 239 663 l 319 703 l 329 706 l 444 706 l 454 703 l 529 663 l 535 658 l 593 592 z "},"ò":{"ha":717,"x_min":83,"x_max":633,"o":"m 497 71 l 563 165 l 563 167 l 599 290 l 599 413 l 564 528 l 563 529 l 497 618 l 432 668 l 294 668 l 225 619 l 161 533 l 119 407 l 119 294 l 161 160 l 222 71 l 293 22 l 431 22 l 497 71 m 131 147 l 128 151 l 83 292 l 83 408 l 128 543 l 131 549 l 197 640 l 201 644 l 278 697 l 290 701 l 436 701 l 449 697 l 519 644 l 524 640 l 590 549 l 593 542 l 632 417 l 633 411 l 633 290 l 632 285 l 593 153 l 590 147 l 524 50 l 519 44 l 449 -7 l 436 -11 l 290 -11 l 279 -7 l 203 44 l 197 50 l 131 147 m 407 813 l 276 1096 l 308 1113 l 436 828 l 407 813 z "},"ó":{"ha":717,"x_min":83,"x_max":633,"o":"m 497 71 l 563 165 l 563 167 l 599 290 l 599 413 l 564 528 l 563 529 l 497 618 l 432 668 l 294 668 l 225 619 l 161 533 l 119 407 l 119 294 l 161 160 l 222 71 l 293 22 l 431 22 l 497 71 m 131 147 l 128 151 l 83 292 l 83 408 l 128 543 l 131 549 l 197 640 l 201 644 l 278 697 l 290 701 l 436 701 l 449 697 l 519 644 l 524 640 l 590 549 l 593 542 l 632 417 l 633 411 l 633 290 l 632 285 l 593 153 l 590 147 l 524 50 l 519 44 l 449 -7 l 436 -11 l 290 -11 l 279 -7 l 203 44 l 197 50 l 131 147 m 317 811 l 283 829 l 413 1113 l 447 1094 l 317 811 z "},"ô":{"ha":717,"x_min":83,"x_max":633,"o":"m 497 71 l 563 165 l 563 167 l 599 290 l 599 413 l 564 528 l 563 529 l 497 618 l 432 668 l 294 668 l 225 619 l 161 533 l 119 407 l 119 294 l 161 160 l 222 71 l 293 22 l 431 22 l 497 71 m 131 147 l 128 151 l 83 292 l 83 408 l 128 543 l 131 549 l 197 640 l 201 644 l 278 697 l 290 701 l 436 701 l 449 697 l 519 644 l 524 640 l 590 549 l 593 542 l 632 417 l 633 411 l 633 290 l 632 285 l 593 153 l 590 147 l 524 50 l 519 44 l 449 -7 l 436 -11 l 290 -11 l 279 -7 l 203 44 l 197 50 l 131 147 m 246 810 l 206 811 l 343 1111 l 372 1111 l 507 813 l 471 811 l 358 1054 l 246 810 z "},"õ":{"ha":717,"x_min":83,"x_max":633,"o":"m 497 71 l 563 165 l 563 167 l 599 290 l 599 413 l 564 528 l 563 529 l 497 618 l 432 668 l 294 668 l 225 619 l 161 533 l 119 407 l 119 294 l 161 160 l 222 71 l 293 22 l 431 22 l 497 71 m 131 147 l 128 151 l 83 292 l 83 408 l 128 543 l 131 549 l 197 640 l 201 644 l 278 697 l 290 701 l 436 701 l 449 697 l 519 644 l 524 640 l 590 549 l 593 542 l 632 417 l 633 411 l 633 290 l 632 285 l 593 153 l 590 147 l 524 50 l 519 44 l 449 -7 l 436 -11 l 290 -11 l 279 -7 l 203 44 l 197 50 l 131 147 z "},"ö":{"ha":717,"x_min":83,"x_max":633,"o":"m 497 71 l 563 165 l 563 167 l 599 290 l 599 413 l 564 528 l 563 529 l 497 618 l 432 668 l 294 668 l 225 619 l 161 533 l 119 407 l 119 294 l 161 160 l 222 71 l 293 22 l 431 22 l 497 71 m 131 147 l 128 151 l 83 292 l 83 408 l 128 543 l 131 549 l 197 640 l 201 644 l 278 697 l 290 701 l 436 701 l 449 697 l 519 644 l 524 640 l 590 549 l 593 542 l 632 417 l 633 411 l 633 290 l 632 285 l 593 153 l 590 147 l 524 50 l 519 44 l 449 -7 l 436 -11 l 290 -11 l 279 -7 l 203 44 l 197 50 l 131 147 m 307 836 l 272 836 l 272 969 l 307 969 l 307 836 m 451 836 l 417 836 l 417 969 l 451 969 l 451 836 z "},"÷":{"ha":657,"x_min":14,"x_max":643,"o":"m 14 385 l 14 424 l 643 424 l 643 385 l 14 385 m 358 572 l 324 572 l 324 706 l 358 706 l 358 572 m 360 78 l 325 78 l 325 211 l 360 211 l 360 78 z "},"ø":{"ha":685,"x_min":67,"x_max":618,"o":"m 482 82 l 547 176 l 547 178 l 583 294 l 583 417 l 549 532 l 547 533 l 522 567 l 181 119 l 207 82 l 278 33 l 415 33 l 482 82 m 115 158 l 113 163 l 68 296 l 68 413 l 113 547 l 115 553 l 182 644 l 186 649 l 263 701 l 275 706 l 421 706 l 433 701 l 504 649 l 508 644 l 522 626 l 583 707 l 610 682 l 544 596 l 575 553 l 578 546 l 617 421 l 618 415 l 618 294 l 617 289 l 578 164 l 575 158 l 508 61 l 504 56 l 433 4 l 421 0 l 275 0 l 264 4 l 188 56 l 182 61 l 161 92 l 90 0 l 67 24 l 140 121 l 115 158 m 500 597 l 482 622 l 417 672 l 279 672 l 210 624 l 146 538 l 104 411 l 104 299 l 146 171 l 161 149 l 500 597 z "},"ù":{"ha":668,"x_min":-49,"x_max":625,"o":"m 549 171 l 590 303 l 590 708 l 625 708 l 625 0 l 590 0 l 590 189 l 579 158 l 513 61 l 507 56 l 431 4 l 419 0 l 296 0 l 283 4 l 214 56 l 210 60 l 142 157 l 139 164 l 113 257 l -19 -4 l -49 10 l 100 307 l 100 710 l 135 710 l 135 301 l 171 174 l 235 82 l 301 33 l 414 33 l 489 83 l 549 171 m 407 813 l 276 1096 l 308 1113 l 436 828 l 407 813 z "},"ú":{"ha":668,"x_min":-49,"x_max":625,"o":"m 549 171 l 590 303 l 590 708 l 625 708 l 625 0 l 590 0 l 590 189 l 579 158 l 513 61 l 507 56 l 431 4 l 419 0 l 296 0 l 283 4 l 214 56 l 210 60 l 142 157 l 139 164 l 113 257 l -19 -4 l -49 10 l 100 307 l 100 710 l 135 710 l 135 301 l 171 174 l 235 82 l 301 33 l 414 33 l 489 83 l 549 171 m 326 811 l 293 829 l 422 1113 l 457 1094 l 326 811 z "},"û":{"ha":668,"x_min":-101,"x_max":572,"o":"m 496 171 l 538 303 l 538 708 l 572 708 l 572 0 l 538 0 l 538 189 l 526 158 l 460 61 l 454 56 l 378 4 l 367 0 l 243 0 l 231 4 l 161 56 l 157 60 l 89 157 l 86 164 l 60 257 l -72 -4 l -101 10 l 47 307 l 47 710 l 82 710 l 82 301 l 118 174 l 182 82 l 249 33 l 361 33 l 436 83 l 496 171 m 200 810 l 160 811 l 297 1111 l 326 1111 l 461 813 l 425 811 l 313 1054 l 200 810 z "},"ü":{"ha":668,"x_min":-49,"x_max":625,"o":"m 549 171 l 590 303 l 590 708 l 625 708 l 625 0 l 590 0 l 590 189 l 579 158 l 513 61 l 507 56 l 431 4 l 419 0 l 296 0 l 283 4 l 214 56 l 210 60 l 142 157 l 139 164 l 113 257 l -19 -4 l -49 10 l 100 307 l 100 710 l 135 710 l 135 301 l 171 174 l 235 82 l 301 33 l 414 33 l 489 83 l 549 171 m 303 836 l 268 836 l 268 969 l 303 969 l 303 836 m 447 836 l 413 836 l 413 969 l 447 969 l 447 836 z "},"ý":{"ha":686,"x_min":293,"x_max":457,"o":"m 326 811 l 293 829 l 422 1113 l 457 1094 l 326 811 z "},"ÿ":{"ha":690,"x_min":56,"x_max":625,"o":"m 593 707 l 625 688 l 226 -278 l 194 -264 l 321 46 l 56 689 l 86 707 l 342 94 l 593 707 m 303 836 l 268 836 l 268 969 l 303 969 l 303 836 m 447 836 l 413 836 l 413 969 l 447 969 l 447 836 z "},"œ":{"ha":1192,"x_min":67,"x_max":1122,"o":"m 481 82 l 546 176 l 546 178 l 582 301 l 582 303 l 582 424 l 547 539 l 546 540 l 481 629 l 415 679 l 278 679 l 208 631 l 144 544 l 103 418 l 103 306 l 144 171 l 206 82 l 276 33 l 414 33 l 481 82 m 114 158 l 111 163 l 67 303 l 67 419 l 111 554 l 114 560 l 181 651 l 185 656 l 261 708 l 274 713 l 419 713 l 432 708 l 503 656 l 507 651 l 574 560 l 576 553 l 599 481 l 622 556 l 625 564 l 693 656 l 697 661 l 768 714 l 781 717 l 928 717 l 940 714 l 1017 661 l 1021 656 l 1088 564 l 1092 556 l 1122 436 l 1122 403 l 617 403 l 617 303 l 653 178 l 718 83 l 785 33 l 925 33 l 996 83 l 1060 175 l 1076 164 l 1071 169 l 1089 158 l 1024 58 l 1017 53 l 939 3 l 928 0 l 781 0 l 768 6 l 697 56 l 693 61 l 625 156 l 622 164 l 600 242 l 576 164 l 574 158 l 507 61 l 503 56 l 432 4 l 419 0 l 274 0 l 263 4 l 186 56 l 181 61 l 114 158 m 718 633 l 653 544 l 619 436 l 1083 436 l 1057 547 l 992 636 l 924 683 l 785 683 l 718 633 z "},"Œ":{"ha":1675,"x_min":56,"x_max":1622,"o":"m 56 669 l 147 878 l 276 1025 l 283 1029 l 431 1108 l 443 1111 l 728 1113 l 739 1108 l 878 1031 l 882 1025 l 989 892 l 1006 858 l 1007 892 l 1010 901 l 1047 992 l 1053 1000 l 1114 1067 l 1119 1074 l 1189 1108 l 1201 1113 l 1333 1111 l 1347 1107 l 1407 1068 l 1413 1064 l 1474 996 l 1450 974 l 1392 1039 l 1390 1039 l 1390 1040 l 1332 1076 l 1331 1078 l 1329 1078 l 1204 1079 l 1203 1079 l 1201 1078 l 1139 1046 l 1138 1044 l 1079 981 l 1078 979 l 1078 978 l 1040 890 l 1035 810 l 1063 828 l 1094 871 l 1094 919 l 1132 919 l 1132 869 l 1129 858 l 1092 807 l 1088 801 l 1046 776 l 1069 725 l 1122 751 l 1135 754 l 1253 753 l 1253 722 l 1135 724 l 1133 724 l 1083 699 l 1132 639 l 1133 638 l 1193 603 l 1194 603 l 1196 603 l 1325 600 l 1326 601 l 1379 632 l 1381 632 l 1444 703 l 1469 681 l 1408 611 l 1401 607 l 1340 569 l 1326 565 l 1194 567 l 1182 569 l 1114 608 l 1096 628 l 1096 471 l 1094 464 l 1019 251 l 1015 244 l 975 197 l 976 196 l 1063 90 l 1063 89 l 1168 35 l 1356 32 l 1357 32 l 1357 33 l 1444 83 l 1533 186 l 1535 186 l 1535 188 l 1592 336 l 1622 322 l 1569 175 l 1564 167 l 1472 61 l 1467 56 l 1371 1 l 1358 -1 l 1161 0 l 1149 4 l 1046 61 l 1040 67 l 953 171 l 883 89 l 876 85 l 740 3 l 729 0 l 443 0 l 433 3 l 283 83 l 275 89 l 146 243 l 143 250 l 63 463 l 56 669 m 624 917 l 622 926 l 622 997 l 658 997 l 658 928 l 688 863 l 753 803 l 851 769 l 949 769 l 997 794 l 943 894 l 854 1004 l 719 1081 l 718 1081 l 451 1081 l 450 1081 l 303 1003 l 174 857 l 96 663 l 96 474 l 175 265 l 303 115 l 446 38 l 725 38 l 854 113 l 936 208 l 893 329 l 892 339 l 892 474 l 893 483 l 951 619 l 954 625 l 1038 710 l 1039 710 l 1013 761 l 961 738 l 953 736 l 849 736 l 840 738 l 735 774 l 657 847 l 624 917 m 1053 682 l 982 604 l 982 603 l 925 471 l 922 339 l 961 238 l 985 265 l 1061 476 l 1063 664 l 1053 682 z "},"↝":{"ha":450,"x_min":-201,"x_max":556,"o":"m 485 164 l 521 233 l 521 307 l 556 307 l 556 232 l 553 222 l 515 149 l 511 143 l 443 81 l 438 76 l 350 38 l 342 36 l 256 36 l 247 38 l 154 78 l 149 82 l 78 149 l 74 154 l 38 226 l 35 236 l 35 250 l 8 250 l -68 217 l -128 153 l -165 74 l -165 0 l -136 -69 l -168 -83 l -200 -14 l -201 -4 l -200 78 l -199 85 l -158 169 l -154 175 l -90 244 l -83 250 l -3 283 l 6 285 l 35 285 l 35 351 l 69 351 l 69 286 l 107 286 l 114 285 l 204 250 l 211 247 l 274 196 l 279 188 l 307 122 l 275 108 l 247 171 l 189 219 l 106 251 l 69 251 l 69 238 l 101 175 l 171 108 l 263 71 l 339 71 l 422 107 l 485 164 z "},"ń":{"ha":740,"x_min":39,"x_max":650,"o":"m 613 592 l 617 586 l 649 510 l 650 501 l 650 0 l 615 0 l 615 500 l 583 574 l 529 635 l 461 672 l 351 672 l 278 635 l 219 568 l 193 531 l 193 0 l 158 0 l 158 446 l 158 453 l 158 481 l 71 354 l 39 372 l 158 544 l 158 706 l 193 706 l 193 594 l 253 658 l 258 663 l 339 703 l 349 706 l 464 706 l 474 703 l 549 663 l 554 658 l 613 592 m 326 811 l 293 829 l 422 1113 l 457 1094 l 326 811 z "},"ī":{"ha":424,"x_min":0,"x_max":0,"o":""},"ĩ":{"ha":424,"x_min":-157,"x_max":543,"o":"m 250 708 l 249 689 l 249 374 l 249 0 l 215 0 l 215 375 l 215 672 l 81 672 l 81 708 l 250 708 m -129 961 l -110 925 l -44 869 l 42 833 l 122 838 l 213 879 l 257 919 l 279 894 l 233 854 l 228 849 l 138 804 l 129 803 l 40 800 l 31 801 l -57 836 l -61 840 l -132 900 l -137 906 l -157 944 l -129 961 m 126 908 l 94 918 l 108 961 l 111 968 l 169 1040 l 174 1044 l 253 1094 l 263 1099 l 350 1113 l 358 1113 l 454 1085 l 461 1082 l 543 1035 l 526 1006 l 446 1053 l 350 1076 l 269 1065 l 192 1015 l 139 946 l 126 908 z "},"ũ":{"ha":833,"x_min":28,"x_max":775,"o":"m 625 171 l 667 303 l 667 706 l 701 706 l 701 0 l 667 0 l 667 189 l 656 158 l 589 61 l 583 56 l 507 4 l 496 0 l 372 0 l 360 4 l 290 56 l 286 60 l 218 157 l 215 164 l 189 257 l 57 -4 l 28 10 l 176 307 l 176 706 l 211 706 l 211 301 l 247 174 l 311 82 l 378 33 l 490 33 l 565 83 l 625 171 m 104 961 l 124 925 l 189 868 l 275 833 l 354 838 l 444 879 l 490 919 l 513 894 l 465 854 l 460 849 l 369 804 l 361 803 l 274 799 l 264 801 l 176 836 l 171 839 l 101 900 l 96 906 l 75 944 l 104 961 m 358 908 l 328 918 l 340 961 l 344 968 l 401 1040 l 406 1044 l 486 1094 l 494 1099 l 582 1113 l 590 1111 l 688 1085 l 694 1082 l 775 1035 l 758 1006 l 678 1053 l 582 1076 l 503 1065 l 425 1014 l 371 946 l 358 908 z "},"ā":{"ha":424,"x_min":0,"x_max":0,"o":""},"€":{"ha":1251,"x_min":65,"x_max":1163,"o":"m 1089 918 l 1163 822 l 1136 801 l 1051 910 l 992 989 l 851 1075 l 575 1075 l 438 999 l 310 856 l 235 679 l 839 679 l 839 644 l 231 644 l 229 526 l 835 526 l 835 492 l 228 492 l 228 467 l 303 264 l 429 113 l 554 36 l 846 36 l 978 113 l 1103 256 l 1129 235 l 997 81 l 861 3 l 849 0 l 546 0 l 535 3 l 407 83 l 269 250 l 192 458 l 192 492 l 65 492 l 65 526 l 193 526 l 194 644 l 69 644 l 69 679 l 196 679 l 281 879 l 404 1022 l 563 1111 l 856 1111 l 1010 1021 l 1089 918 z "},"—":{"ha":1218,"x_min":122,"x_max":1106,"o":"m 122 386 l 122 425 l 1106 425 l 1106 386 l 122 386 z "},"–":{"ha":518,"x_min":47,"x_max":472,"o":"m 47 385 l 47 424 l 472 424 l 472 385 l 47 385 z "},"᠆":{"ha":283,"x_min":28,"x_max":256,"o":"m 28 385 l 28 424 l 256 424 l 256 385 l 28 385 z "},"¥":{"ha":674,"x_min":53,"x_max":622,"o":"m 313 467 l 53 1090 l 83 1108 l 339 496 l 590 1108 l 622 1089 l 364 467 l 574 467 l 574 431 l 357 431 l 357 340 l 569 340 l 569 304 l 357 304 l 357 0 l 321 0 l 321 304 l 99 304 l 99 340 l 321 340 l 321 431 l 103 431 l 103 467 l 313 467 z "}}}
